%FSLAX36Y36*%
%MOMM*%
%LPD*%
%ADD11C,0.00100*%
%ADD12C,0.10000*%
%ADD13C,0.25000*%
%ADD14R,0.50000X0.50000*%
%ADD15R,0.25000X0.25000*%
%ADD16R,1.00000X1.00000*%
%ADD17C,0.50000*%
%ADD18C,1.25000*%
%ADD19C,0.07500*%
%ADD20C,0.15000*%
%ADD21C,0.04000*%
G54D12*
X-2000000Y-500000D02*
X-1921783Y-493844D01*
G54D12*
X-1921783Y-493844D02*
X-1845492Y-475528D01*
G54D12*
X-1845492Y-475528D02*
X-1773005Y-445503D01*
G54D12*
X-1773005Y-445503D02*
X-1706107Y-404508D01*
G54D12*
X-1706107Y-404508D02*
X-1646447Y-353553D01*
G54D12*
X-2353553Y353553D02*
X-2409576Y286788D01*
G54D12*
X-2409576Y286788D02*
X-2453154Y211309D01*
G54D12*
X-2453154Y211309D02*
X-2482963Y129410D01*
G54D12*
X-2482963Y129410D02*
X-2498097Y043578D01*
G54D12*
X-2498097Y043578D02*
X-2498097Y-43578D01*
G54D12*
X-2498097Y-43578D02*
X-2482963Y-129410D01*
G54D12*
X-2482963Y-129410D02*
X-2453154Y-211309D01*
G54D12*
X-2453154Y-211309D02*
X-2409576Y-286788D01*
G54D12*
X-2409576Y-286788D02*
X-2353553Y-353553D01*
G54D12*
X-1500000Y000000D02*
X-1507596Y086824D01*
G54D12*
X-1507596Y086824D02*
X-1530154Y171010D01*
G54D12*
X-1530154Y171010D02*
X-1566987Y250000D01*
G54D12*
X-1566987Y250000D02*
X-1616978Y321394D01*
G54D12*
X-1616978Y321394D02*
X-1678606Y383022D01*
G54D12*
X-1678606Y383022D02*
X-1750000Y433013D01*
G54D12*
X-1750000Y433013D02*
X-1828990Y469846D01*
G54D12*
X-1828990Y469846D02*
X-1913176Y492404D01*
G54D12*
X-1913176Y492404D02*
X-2000000Y500000D01*
G54D12*
X-1500000Y1000000D02*
X-1502408Y1098017D01*
G54D12*
X-1502408Y1098017D02*
X-1509607Y1195090D01*
G54D12*
X-1509607Y1195090D02*
X-1521530Y1290285D01*
G54D12*
X-1521530Y1290285D02*
X-1538060Y1382683D01*
G54D12*
X-1538060Y1382683D02*
X-1559039Y1471397D01*
G54D12*
X-1559039Y1471397D02*
X-1584265Y1555570D01*
G54D12*
X-1584265Y1555570D02*
X-1613495Y1634393D01*
G54D12*
X-1613495Y1634393D02*
X-1646447Y1707107D01*
G54D12*
X-1646447Y1707107D02*
X-1682803Y1773010D01*
G54D12*
X-1682803Y1773010D02*
X-1722215Y1831470D01*
G54D12*
X-1722215Y1831470D02*
X-1764302Y1881921D01*
G54D12*
X-1764302Y1881921D02*
X-1808658Y1923880D01*
G54D12*
X-1808658Y1923880D02*
X-1854858Y1956940D01*
G54D12*
X-1854858Y1956940D02*
X-1902455Y1980785D01*
G54D12*
X-1902455Y1980785D02*
X-1950991Y1995185D01*
G54D12*
X-1950991Y1995185D02*
X-2000000Y2000000D01*
G54D12*
X-2000000Y2000000D02*
X-2049009Y1995185D01*
G54D12*
X-2049009Y1995185D02*
X-2097545Y1980785D01*
G54D12*
X-2097545Y1980785D02*
X-2145142Y1956940D01*
G54D12*
X-2145142Y1956940D02*
X-2191342Y1923880D01*
G54D12*
X-2191342Y1923880D02*
X-2235698Y1881921D01*
G54D12*
X-2235698Y1881921D02*
X-2277785Y1831470D01*
G54D12*
X-2277785Y1831470D02*
X-2317197Y1773010D01*
G54D12*
X-2317197Y1773010D02*
X-2353553Y1707107D01*
G54D12*
X-2353553Y1707107D02*
X-2386505Y1634393D01*
G54D12*
X-2386505Y1634393D02*
X-2415735Y1555570D01*
G54D12*
X-2415735Y1555570D02*
X-2440961Y1471397D01*
G54D12*
X-2440961Y1471397D02*
X-2461940Y1382683D01*
G54D12*
X-2461940Y1382683D02*
X-2478470Y1290285D01*
G54D12*
X-2478470Y1290285D02*
X-2490393Y1195090D01*
G54D12*
X-2490393Y1195090D02*
X-2497592Y1098017D01*
G54D12*
X-2497592Y1098017D02*
X-2500000Y1000000D01*
G54D12*
X-1700000Y1000000D02*
X-1701445Y1058810D01*
G54D12*
X-1701445Y1058810D02*
X-1705764Y1117054D01*
G54D12*
X-1705764Y1117054D02*
X-1712918Y1174171D01*
G54D12*
X-1712918Y1174171D02*
X-1722836Y1229610D01*
G54D12*
X-1722836Y1229610D02*
X-1735424Y1282838D01*
G54D12*
X-1735424Y1282838D02*
X-1750559Y1333342D01*
G54D12*
X-1750559Y1333342D02*
X-1768097Y1380636D01*
G54D12*
X-1768097Y1380636D02*
X-1787868Y1424264D01*
G54D12*
X-1787868Y1424264D02*
X-1809682Y1463806D01*
G54D12*
X-1809682Y1463806D02*
X-1833329Y1498882D01*
G54D12*
X-1833329Y1498882D02*
X-1858581Y1529153D01*
G54D12*
X-1858581Y1529153D02*
X-1885195Y1554328D01*
G54D12*
X-1885195Y1554328D02*
X-1912915Y1574164D01*
G54D12*
X-1912915Y1574164D02*
X-1941473Y1588471D01*
G54D12*
X-1941473Y1588471D02*
X-1970595Y1597111D01*
G54D12*
X-1970595Y1597111D02*
X-2000000Y1600000D01*
G54D12*
X-2000000Y1600000D02*
X-2029405Y1597111D01*
G54D12*
X-2029405Y1597111D02*
X-2058527Y1588471D01*
G54D12*
X-2058527Y1588471D02*
X-2087085Y1574164D01*
G54D12*
X-2087085Y1574164D02*
X-2114805Y1554328D01*
G54D12*
X-2114805Y1554328D02*
X-2141419Y1529153D01*
G54D12*
X-2141419Y1529153D02*
X-2166671Y1498882D01*
G54D12*
X-2166671Y1498882D02*
X-2190318Y1463806D01*
G54D12*
X-2190318Y1463806D02*
X-2212132Y1424264D01*
G54D12*
X-2212132Y1424264D02*
X-2231903Y1380636D01*
G54D12*
X-2231903Y1380636D02*
X-2249441Y1333342D01*
G54D12*
X-2249441Y1333342D02*
X-2264576Y1282838D01*
G54D12*
X-2264576Y1282838D02*
X-2277164Y1229610D01*
G54D12*
X-2277164Y1229610D02*
X-2287082Y1174171D01*
G54D12*
X-2287082Y1174171D02*
X-2294236Y1117054D01*
G54D12*
X-2294236Y1117054D02*
X-2298555Y1058810D01*
G54D12*
X-2298555Y1058810D02*
X-2300000Y1000000D01*
G54D12*
X-1133975Y3875000D02*
X-1187513Y3937235D01*
G54D12*
X-1187513Y3937235D02*
X-1248975Y3995205D01*
G54D12*
X-1248975Y3995205D02*
X-1317761Y4048347D01*
G54D12*
X-1317761Y4048347D02*
X-1393200Y4096141D01*
G54D12*
X-1393200Y4096141D02*
X-1474556Y4138121D01*
G54D12*
X-1474556Y4138121D02*
X-1561037Y4173879D01*
G54D12*
X-1561037Y4173879D02*
X-1651798Y4203065D01*
G54D12*
X-1651798Y4203065D02*
X-1745955Y4225394D01*
G54D12*
X-1745955Y4225394D02*
X-1842590Y4240650D01*
G54D12*
X-1842590Y4240650D02*
X-1940759Y4248683D01*
G54D12*
X-1940759Y4248683D02*
X-2039507Y4249414D01*
G54D12*
X-2039507Y4249414D02*
X-2137869Y4242838D01*
G54D12*
X-2137869Y4242838D02*
X-2234886Y4229017D01*
G54D12*
X-2234886Y4229017D02*
X-2329613Y4208087D01*
G54D12*
X-2329613Y4208087D02*
X-2421125Y4180252D01*
G54D12*
X-2421125Y4180252D02*
X-2508531Y4145783D01*
G54D12*
X-2508531Y4145783D02*
X-2590978Y4105016D01*
G54D12*
X-2590978Y4105016D02*
X-2667661Y4058349D01*
G54D12*
X-2667661Y4058349D02*
X-2737833Y4006237D01*
G54D12*
X-2737833Y4006237D02*
X-2800810Y3949189D01*
G54D12*
X-2800810Y3949189D02*
X-2855978Y3887759D01*
G54D12*
X-2855978Y3887759D02*
X-2902798Y3822549D01*
G54D12*
X-2902798Y3822549D02*
X-2940814Y3754193D01*
G54D12*
X-2940814Y3754193D02*
X-2969655Y3683358D01*
G54D12*
X-2969655Y3683358D02*
X-2989040Y3610735D01*
G54D12*
X-2989040Y3610735D02*
X-2998780Y3537032D01*
G54D12*
X-2998780Y3537032D02*
X-2998780Y3462968D01*
G54D12*
X-2998780Y3462968D02*
X-2989040Y3389265D01*
G54D12*
X-2989040Y3389265D02*
X-2969655Y3316642D01*
G54D12*
X-2969655Y3316642D02*
X-2940814Y3245807D01*
G54D12*
X-2940814Y3245807D02*
X-2902798Y3177451D01*
G54D12*
X-2902798Y3177451D02*
X-2855978Y3112241D01*
G54D12*
X-2855978Y3112241D02*
X-2800810Y3050811D01*
G54D12*
X-2800810Y3050811D02*
X-2737833Y2993763D01*
G54D12*
X-2737833Y2993763D02*
X-2667661Y2941651D01*
G54D12*
X-2667661Y2941651D02*
X-2590978Y2894984D01*
G54D12*
X-2590978Y2894984D02*
X-2508531Y2854217D01*
G54D12*
X-2508531Y2854217D02*
X-2421125Y2819748D01*
G54D12*
X-2421125Y2819748D02*
X-2329613Y2791913D01*
G54D12*
X-2329613Y2791913D02*
X-2234886Y2770983D01*
G54D12*
X-2234886Y2770983D02*
X-2137869Y2757162D01*
G54D12*
X-2137869Y2757162D02*
X-2039507Y2750586D01*
G54D12*
X-2039507Y2750586D02*
X-1940759Y2751317D01*
G54D12*
X-1940759Y2751317D02*
X-1842590Y2759350D01*
G54D12*
X-1842590Y2759350D02*
X-1745955Y2774606D01*
G54D12*
X-1745955Y2774606D02*
X-1651798Y2796935D01*
G54D12*
X-1651798Y2796935D02*
X-1561037Y2826121D01*
G54D12*
X-1561037Y2826121D02*
X-1474556Y2861879D01*
G54D12*
X-1474556Y2861879D02*
X-1393200Y2903859D01*
G54D12*
X-1393200Y2903859D02*
X-1317761Y2951653D01*
G54D12*
X-1317761Y2951653D02*
X-1248975Y3004795D01*
G54D12*
X-1248975Y3004795D02*
X-1187513Y3062765D01*
G54D12*
X-1187513Y3062765D02*
X-1133975Y3125000D01*
G54D12*
X-1428423Y3750000D02*
X-1463759Y3791490D01*
G54D12*
X-1463759Y3791490D02*
X-1504323Y3830137D01*
G54D12*
X-1504323Y3830137D02*
X-1549722Y3865565D01*
G54D12*
X-1549722Y3865565D02*
X-1599512Y3897427D01*
G54D12*
X-1599512Y3897427D02*
X-1653207Y3925414D01*
G54D12*
X-1653207Y3925414D02*
X-1710284Y3949253D01*
G54D12*
X-1710284Y3949253D02*
X-1770187Y3968710D01*
G54D12*
X-1770187Y3968710D02*
X-1832331Y3983596D01*
G54D12*
X-1832331Y3983596D02*
X-1896109Y3993767D01*
G54D12*
X-1896109Y3993767D02*
X-1960901Y3999122D01*
G54D12*
X-1960901Y3999122D02*
X-2026074Y3999610D01*
G54D12*
X-2026074Y3999610D02*
X-2090993Y3995225D01*
G54D12*
X-2090993Y3995225D02*
X-2155025Y3986011D01*
G54D12*
X-2155025Y3986011D02*
X-2217545Y3972058D01*
G54D12*
X-2217545Y3972058D02*
X-2277943Y3953501D01*
G54D12*
X-2277943Y3953501D02*
X-2335631Y3930522D01*
G54D12*
X-2335631Y3930522D02*
X-2390045Y3903344D01*
G54D12*
X-2390045Y3903344D02*
X-2440656Y3872233D01*
G54D12*
X-2440656Y3872233D02*
X-2486970Y3837492D01*
G54D12*
X-2486970Y3837492D02*
X-2528535Y3799459D01*
G54D12*
X-2528535Y3799459D02*
X-2564945Y3758506D01*
G54D12*
X-2564945Y3758506D02*
X-2595847Y3715033D01*
G54D12*
X-2595847Y3715033D02*
X-2620937Y3669462D01*
G54D12*
X-2620937Y3669462D02*
X-2639972Y3622239D01*
G54D12*
X-2639972Y3622239D02*
X-2652767Y3573823D01*
G54D12*
X-2652767Y3573823D02*
X-2659195Y3524688D01*
G54D12*
X-2659195Y3524688D02*
X-2659195Y3475312D01*
G54D12*
X-2659195Y3475312D02*
X-2652767Y3426177D01*
G54D12*
X-2652767Y3426177D02*
X-2639972Y3377761D01*
G54D12*
X-2639972Y3377761D02*
X-2620937Y3330538D01*
G54D12*
X-2620937Y3330538D02*
X-2595847Y3284967D01*
G54D12*
X-2595847Y3284967D02*
X-2564945Y3241494D01*
G54D12*
X-2564945Y3241494D02*
X-2528535Y3200541D01*
G54D12*
X-2528535Y3200541D02*
X-2486970Y3162508D01*
G54D12*
X-2486970Y3162508D02*
X-2440656Y3127767D01*
G54D12*
X-2440656Y3127767D02*
X-2390045Y3096656D01*
G54D12*
X-2390045Y3096656D02*
X-2335631Y3069478D01*
G54D12*
X-2335631Y3069478D02*
X-2277943Y3046499D01*
G54D12*
X-2277943Y3046499D02*
X-2217545Y3027942D01*
G54D12*
X-2217545Y3027942D02*
X-2155025Y3013989D01*
G54D12*
X-2155025Y3013989D02*
X-2090993Y3004775D01*
G54D12*
X-2090993Y3004775D02*
X-2026074Y3000390D01*
G54D12*
X-2026074Y3000390D02*
X-1960901Y3000878D01*
G54D12*
X-1960901Y3000878D02*
X-1896109Y3006233D01*
G54D12*
X-1896109Y3006233D02*
X-1832331Y3016404D01*
G54D12*
X-1832331Y3016404D02*
X-1770187Y3031290D01*
G54D12*
X-1770187Y3031290D02*
X-1710284Y3050747D01*
G54D12*
X-1710284Y3050747D02*
X-1653207Y3074586D01*
G54D12*
X-1653207Y3074586D02*
X-1599512Y3102573D01*
G54D12*
X-1599512Y3102573D02*
X-1549722Y3134435D01*
G54D12*
X-1549722Y3134435D02*
X-1504323Y3169863D01*
G54D12*
X-1504323Y3169863D02*
X-1463759Y3208510D01*
G54D12*
X-1463759Y3208510D02*
X-1428423Y3250000D01*
G54D13*
X1000000Y1000000D02*
X2000000Y2000000D01*
G54D14*
X1000000Y2000000D02*
X2000000Y3000000D01*
G54D13*
X1000000Y3500000D02*
X2000000Y3500000D01*
G54D15*
X1000000Y4000000D02*
X2000000Y4000000D01*
G54D16*
X2500000Y1000000D02*
X2500000Y1000000D01*
G54D17*
X000000Y000000D02*
X000000Y000000D01*
G54D17*
X000000Y2000000D02*
X000000Y2000000D01*
G54D18*
X3500000Y3000000D02*
X3500000Y3000000D01*
G54D11*
G36*
X4000000Y000000D02*
X5000000Y000000D01*
X5000000Y1500000D01*
X3500000Y1500000D01*
X4000000Y1000000D01*
X4000000Y000000D02*
G37*
G54D19*
X000000Y-750000D02*
X000000Y-1750000D01*
G54D19*
X625000Y-750000D02*
X625000Y-1750000D01*
G54D19*
X000000Y-1250000D02*
X625000Y-1250000D01*
G54D19*
X1085000Y-1750000D02*
X1460000Y-1750000D01*
G54D19*
X960000Y-1625000D02*
X1085000Y-1750000D01*
G54D19*
X960000Y-1375000D02*
X960000Y-1625000D01*
G54D19*
X960000Y-1375000D02*
X1085000Y-1250000D01*
G54D19*
X1085000Y-1250000D02*
X1335000Y-1250000D01*
G54D19*
X1335000Y-1250000D02*
X1460000Y-1375000D01*
G54D19*
X960000Y-1500000D02*
X1460000Y-1500000D01*
G54D19*
X1460000Y-1500000D02*
X1460000Y-1375000D01*
G54D19*
X1920000Y-750000D02*
X1920000Y-1625000D01*
G54D19*
X1920000Y-1625000D02*
X2045000Y-1750000D01*
G54D19*
X2720000Y-750000D02*
X2720000Y-1625000D01*
G54D19*
X2720000Y-1625000D02*
X2845000Y-1750000D01*
G54D19*
X3520000Y-1375000D02*
X3520000Y-1625000D01*
G54D19*
X3520000Y-1375000D02*
X3645000Y-1250000D01*
G54D19*
X3645000Y-1250000D02*
X3895000Y-1250000D01*
G54D19*
X3895000Y-1250000D02*
X4020000Y-1375000D01*
G54D19*
X4020000Y-1375000D02*
X4020000Y-1625000D01*
G54D19*
X3895000Y-1750000D02*
X4020000Y-1625000D01*
G54D19*
X3645000Y-1750000D02*
X3895000Y-1750000D01*
G54D19*
X3520000Y-1625000D02*
X3645000Y-1750000D01*
G54D20*
X000000Y-2000000D02*
X1000000Y-2000000D01*
G54D20*
X500000Y-2000000D02*
X500000Y-4000000D01*
G54D20*
X1920000Y-2000000D02*
X1920000Y-4000000D01*
G54D20*
X1920000Y-3250000D02*
X2170000Y-3000000D01*
G54D20*
X2170000Y-3000000D02*
X2670000Y-3000000D01*
G54D20*
X2670000Y-3000000D02*
X2920000Y-3250000D01*
G54D20*
X2920000Y-3250000D02*
X2920000Y-4000000D01*
G54D20*
X4090000Y-4000000D02*
X4840000Y-4000000D01*
G54D20*
X3840000Y-3750000D02*
X4090000Y-4000000D01*
G54D20*
X3840000Y-3250000D02*
X3840000Y-3750000D01*
G54D20*
X3840000Y-3250000D02*
X4090000Y-3000000D01*
G54D20*
X4090000Y-3000000D02*
X4590000Y-3000000D01*
G54D20*
X4590000Y-3000000D02*
X4840000Y-3250000D01*
G54D20*
X3840000Y-3500000D02*
X4840000Y-3500000D01*
G54D20*
X4840000Y-3500000D02*
X4840000Y-3250000D01*
G54D20*
X6010000Y-3250000D02*
X6010000Y-4000000D01*
G54D20*
X6010000Y-3250000D02*
X6260000Y-3000000D01*
G54D20*
X6260000Y-3000000D02*
X6760000Y-3000000D01*
G54D20*
X5760000Y-3000000D02*
X6010000Y-3250000D01*
G54D20*
X7930000Y-4000000D02*
X8680000Y-4000000D01*
G54D20*
X7680000Y-3750000D02*
X7930000Y-4000000D01*
G54D20*
X7680000Y-3250000D02*
X7680000Y-3750000D01*
G54D20*
X7680000Y-3250000D02*
X7930000Y-3000000D01*
G54D20*
X7930000Y-3000000D02*
X8430000Y-3000000D01*
G54D20*
X8430000Y-3000000D02*
X8680000Y-3250000D01*
G54D20*
X7680000Y-3500000D02*
X8680000Y-3500000D01*
G54D20*
X8680000Y-3500000D02*
X8680000Y-3250000D01*
G54D20*
X9600000Y-3750000D02*
X9600000Y-4000000D01*
G54D20*
X9600000Y-2000000D02*
X9600000Y-3250000D01*
G54D21*
X5823223Y-823223D02*
X6088388Y-1088388D01*
G54D21*
X5823223Y-823223D02*
X5796706Y-672963D01*
G54D21*
X5796706Y-672963D02*
X5893933Y-575735D01*
G54D21*
X5893933Y-575735D02*
X6044194Y-602252D01*
G54D21*
X6044194Y-602252D02*
X6309359Y-867417D01*
G54D21*
X5911611Y-911611D02*
X6132582Y-690640D01*
G54D21*
X6339411Y-572200D02*
X6471993Y-704782D01*
G54D21*
X6339411Y-572200D02*
X6339411Y-483812D01*
G54D21*
X6339411Y-483812D02*
X6383605Y-439617D01*
G54D21*
X6383605Y-439617D02*
X6471993Y-439617D01*
G54D21*
X6471993Y-439617D02*
X6604576Y-572200D01*
G54D21*
X6251022Y-572200D02*
X6339411Y-572200D01*
G54D21*
X6590434Y-232789D02*
X6723016Y-365371D01*
G54D21*
X6723016Y-365371D02*
X6811405Y-365371D01*
G54D21*
X6767210Y-56012D02*
X7032375Y-321177D01*
G54D21*
X7032375Y-409565D02*
X7032375Y-321177D01*
G54D21*
X6943987Y-497954D02*
X7032375Y-409565D01*
G54D21*
X6855599Y-497954D02*
X6943987Y-497954D01*
G54D21*
X6811405Y-365371D02*
X6899793Y-276983D01*
G54D21*
X6899793Y-276983D02*
X6899793Y-188594D01*
G54D21*
X7350573Y704127D02*
X7615738Y438962D01*
G54D21*
X7350573Y704127D02*
X7324057Y854387D01*
G54D21*
X7324057Y854387D02*
X7421284Y951614D01*
G54D21*
X7421284Y951614D02*
X7571544Y925098D01*
G54D21*
X7571544Y925098D02*
X7836709Y659933D01*
G54D21*
X7438962Y615738D02*
X7659933Y836709D01*
G54D21*
X7866761Y955150D02*
X7999344Y822567D01*
G54D21*
X7866761Y955150D02*
X7866761Y1043538D01*
G54D21*
X7866761Y1043538D02*
X7910956Y1087732D01*
G54D21*
X7910956Y1087732D02*
X7999344Y1087732D01*
G54D21*
X7999344Y1087732D02*
X8131926Y955150D01*
G54D21*
X7778373Y955150D02*
X7866761Y955150D01*
G54D21*
X8250367Y1427144D02*
X8338755Y1427144D01*
G54D21*
X8161978Y1338755D02*
X8250367Y1427144D01*
G54D21*
X8161978Y1250367D02*
X8161978Y1338755D01*
G54D21*
X8161978Y1250367D02*
X8250367Y1161978D01*
G54D21*
X8250367Y1161978D02*
X8338755Y1161978D01*
G54D21*
X8338755Y1161978D02*
X8427144Y1250367D01*
G54D21*
X8427144Y1250367D02*
X8427144Y1338755D01*
G54D21*
X8382949Y1029396D02*
X8471338Y1029396D01*
G54D21*
X8471338Y1029396D02*
X8559726Y1117784D01*
G54D21*
X8559726Y1117784D02*
X8559726Y1206173D01*
G54D21*
X8294561Y1471338D02*
X8559726Y1206173D01*
G54D21*
X8280419Y1810749D02*
X8589778Y1501390D01*
G54D21*
X8589778Y1501390D02*
X8678166Y1501390D01*
G54D21*
X8961009Y1784232D02*
X9093592Y1916815D01*
G54D21*
X8872621Y1784232D02*
X8961009Y1784232D01*
G54D21*
X8784232Y1872621D02*
X8872621Y1784232D01*
G54D21*
X8784232Y1872621D02*
X8784232Y1961009D01*
G54D21*
X8784232Y1961009D02*
X8872621Y2049397D01*
G54D21*
X8872621Y2049397D02*
X8961009Y2049397D01*
G54D21*
X8828427Y1828427D02*
X9005203Y2005203D01*
G54D21*
X9005203Y2005203D02*
X8961009Y2049397D01*
G54D21*
X9411790Y2942120D02*
X9588566Y3118897D01*
G54D21*
X9500178Y3030508D02*
X9853731Y2676955D01*
G54D21*
X10148949Y2972172D02*
X10281531Y3104754D01*
G54D21*
X10060560Y2972172D02*
X10148949Y2972172D01*
G54D21*
X9972172Y3060560D02*
X10060560Y2972172D01*
G54D21*
X9972172Y3060560D02*
X9972172Y3148949D01*
G54D21*
X9972172Y3148949D02*
X10060560Y3237337D01*
G54D21*
X10060560Y3237337D02*
X10148949Y3237337D01*
G54D21*
X10016366Y3016366D02*
X10193143Y3193143D01*
G54D21*
X10193143Y3193143D02*
X10148949Y3237337D01*
G54D21*
X10267389Y3444166D02*
X10620942Y3444166D01*
G54D21*
X10444166Y3267389D02*
X10444166Y3620942D01*
G54D21*
X10474218Y4004548D02*
X10783577Y3695189D01*
G54D21*
X10783577Y3695189D02*
X10871965Y3695189D01*
G54D21*
X10562606Y3827771D02*
X10650994Y3916159D01*
M02*
