%FSLAX36Y36*%
%MOMM*%
%LPD*%
%ADD11C,0.00100*%
%ADD12C,0.25400*%
%ADD13R,0.50800X0.50800*%
%ADD14C,0.91440*%
%ADD15C,0.10000*%
G54D11*
G36*
X17907508Y125222000D02*
X18288000Y125222000D01*
X20828000Y122682000D01*
X20828000Y115570000D01*
X17907508Y115570000D01*
X17907508Y119443499D01*
X17931384Y119453406D01*
X18098516Y119540528D01*
X18257520Y119641874D01*
X18407126Y119756427D01*
X18546064Y119883935D01*
X18673572Y120022874D01*
X18788126Y120172480D01*
X18889472Y120331483D01*
X18976594Y120498616D01*
X19048730Y120672859D01*
X19105372Y120852692D01*
X19146266Y121036842D01*
X19170904Y121223531D01*
X19179032Y121412000D01*
X19174714Y121471944D01*
X19160744Y121530618D01*
X19137630Y121585990D01*
X19106388Y121637298D01*
X19067272Y121683272D01*
X19021298Y121722388D01*
X18969990Y121753630D01*
X18914618Y121776744D01*
X18855944Y121790714D01*
X18796000Y121795539D01*
X18736056Y121790714D01*
X18677382Y121776744D01*
X18622010Y121753630D01*
X18570702Y121722388D01*
X18524728Y121683272D01*
X18485612Y121637298D01*
X18454370Y121585990D01*
X18431256Y121530618D01*
X18417286Y121471944D01*
X18413730Y121412000D01*
X18409666Y121290334D01*
X18393664Y121169430D01*
X18367502Y121050304D01*
X18330672Y120934226D01*
X18284190Y120821704D01*
X18227802Y120713500D01*
X18162270Y120610630D01*
X18088102Y120514110D01*
X18005806Y120424194D01*
X17915890Y120341898D01*
X17907508Y120335294D01*
X17907508Y125222000D01*
X17907508Y125222000D02*
G37*
G54D11*
G36*
X17907508Y114807999D02*
X20828000Y114807999D01*
X20828000Y106680000D01*
X18542000Y104394000D01*
X17907508Y104394000D01*
X17907508Y114807999D01*
X17907508Y114807999D02*
G37*
G54D11*
G36*
X13970000Y124937266D02*
X13974825Y124942092D01*
X13986256Y124951744D01*
X14025118Y124997210D01*
X14025118Y124997464D01*
X14056613Y125048518D01*
X14079474Y125103890D01*
X14093444Y125162310D01*
X14098270Y125222000D01*
X17907508Y125222000D01*
X17907508Y120335294D01*
X17819370Y120267730D01*
X17716500Y120202198D01*
X17608296Y120145810D01*
X17495774Y120099328D01*
X17379696Y120062498D01*
X17260570Y120036336D01*
X17139666Y120020333D01*
X17018000Y120014999D01*
X16958310Y120011443D01*
X16899890Y119997474D01*
X16844518Y119974614D01*
X16793464Y119943118D01*
X16747743Y119904256D01*
X16708882Y119858536D01*
X16677386Y119807482D01*
X16654526Y119752110D01*
X16640555Y119693690D01*
X16635730Y119634000D01*
X16640555Y119574310D01*
X16654526Y119515890D01*
X16677386Y119460518D01*
X16708882Y119409464D01*
X16747743Y119363744D01*
X16793464Y119324882D01*
X16844518Y119293385D01*
X16899890Y119270526D01*
X16958310Y119256556D01*
X17018000Y119253000D01*
X17206468Y119259096D01*
X17393158Y119283734D01*
X17577308Y119324628D01*
X17757140Y119381270D01*
X17907508Y119443499D01*
X17907508Y115570000D01*
X13970000Y115570000D01*
X13970000Y116078508D01*
X15005812Y116079270D01*
X15025370Y116083841D01*
X15043912Y116091462D01*
X15060930Y116101876D01*
X15076170Y116114829D01*
X15089124Y116130070D01*
X15099538Y116147088D01*
X15107158Y116165630D01*
X15111730Y116185188D01*
X15113000Y116205000D01*
X15111730Y116732812D01*
X15107158Y116752369D01*
X15099538Y116770911D01*
X15089124Y116787930D01*
X15076170Y116803170D01*
X15060930Y116816123D01*
X15043912Y116826538D01*
X15025370Y116834158D01*
X15005812Y116838730D01*
X14986000Y116839999D01*
X13970000Y116839492D01*
X13970000Y117348508D01*
X15005812Y117349270D01*
X15025370Y117353842D01*
X15043912Y117361461D01*
X15060930Y117371876D01*
X15076170Y117384830D01*
X15089124Y117400070D01*
X15099538Y117417088D01*
X15107158Y117435630D01*
X15111730Y117455188D01*
X15113000Y117475000D01*
X15111730Y118002812D01*
X15107158Y118022370D01*
X15099538Y118040912D01*
X15089124Y118057930D01*
X15076170Y118073170D01*
X15060930Y118086124D01*
X15043912Y118096538D01*
X15025370Y118104158D01*
X15005812Y118108729D01*
X14986000Y118110000D01*
X13970000Y118109492D01*
X13970000Y118618508D01*
X15005812Y118619270D01*
X15025370Y118623842D01*
X15043912Y118631462D01*
X15060930Y118641876D01*
X15076170Y118654830D01*
X15089124Y118670069D01*
X15099538Y118687088D01*
X15107158Y118705630D01*
X15111730Y118725188D01*
X15113000Y118745000D01*
X15111730Y119272812D01*
X15107158Y119292370D01*
X15099538Y119310912D01*
X15089124Y119327929D01*
X15076170Y119343170D01*
X15060930Y119356124D01*
X15043912Y119366538D01*
X15025370Y119374158D01*
X15005812Y119378730D01*
X14986000Y119380000D01*
X13970000Y119379492D01*
X13970000Y119888508D01*
X15005812Y119889269D01*
X15025370Y119893842D01*
X15043912Y119901462D01*
X15060930Y119911875D01*
X15076170Y119924830D01*
X15089124Y119940070D01*
X15099538Y119957088D01*
X15107158Y119975629D01*
X15111730Y119995188D01*
X15113000Y120014999D01*
X15111730Y120542812D01*
X15107158Y120562370D01*
X15099538Y120580912D01*
X15089124Y120597930D01*
X15076170Y120613170D01*
X15060930Y120626124D01*
X15043912Y120636537D01*
X15025370Y120644158D01*
X15005812Y120648730D01*
X14986000Y120650000D01*
X13970000Y120649492D01*
X13970000Y121158507D01*
X15005812Y121159270D01*
X15025370Y121163842D01*
X15043912Y121171462D01*
X15060930Y121181876D01*
X15076170Y121194830D01*
X15089124Y121210070D01*
X15099538Y121227087D01*
X15107158Y121245630D01*
X15111730Y121265187D01*
X15113000Y121285000D01*
X15111730Y121812812D01*
X15107158Y121832370D01*
X15099538Y121850912D01*
X15089124Y121867930D01*
X15076170Y121883169D01*
X15060930Y121896124D01*
X15043912Y121906538D01*
X15025370Y121914157D01*
X15005812Y121918730D01*
X14986000Y121920000D01*
X13970000Y121919491D01*
X13970000Y122428508D01*
X15005812Y122429270D01*
X15025370Y122433841D01*
X15043912Y122441462D01*
X15060930Y122451876D01*
X15076170Y122464829D01*
X15089124Y122480070D01*
X15099538Y122497088D01*
X15107158Y122515630D01*
X15111730Y122535188D01*
X15113000Y122555000D01*
X15111730Y123082812D01*
X15107158Y123102369D01*
X15099538Y123120911D01*
X15089124Y123137930D01*
X15076170Y123153170D01*
X15060930Y123166123D01*
X15043912Y123176538D01*
X15025370Y123184158D01*
X15005812Y123188730D01*
X14986000Y123189999D01*
X13970000Y123189492D01*
X13970000Y124937266D01*
X13970000Y124937266D02*
G37*
G54D11*
G36*
X13970000Y114807999D02*
X17907508Y114807999D01*
X17907508Y104394000D01*
X13970000Y104394000D01*
X13970000Y107285536D01*
X14003528Y107271566D01*
X14112494Y107245404D01*
X14224000Y107236514D01*
X14335505Y107245404D01*
X14444471Y107271566D01*
X14547850Y107314238D01*
X14643354Y107372912D01*
X14728444Y107445555D01*
X14801088Y107530646D01*
X14859762Y107626150D01*
X14902433Y107729528D01*
X14928596Y107838494D01*
X14935200Y107950000D01*
X14928596Y108061506D01*
X14902433Y108170472D01*
X14859762Y108273849D01*
X14801088Y108369354D01*
X14728444Y108454444D01*
X14643354Y108527087D01*
X14547850Y108585762D01*
X14444471Y108628433D01*
X14335505Y108654595D01*
X14224000Y108663486D01*
X14112494Y108654595D01*
X14003528Y108628433D01*
X13970000Y108614464D01*
X13970000Y110998508D01*
X15005812Y110999270D01*
X15025370Y111003842D01*
X15043912Y111011461D01*
X15060930Y111021876D01*
X15076170Y111034830D01*
X15089124Y111050070D01*
X15099538Y111067088D01*
X15107158Y111085630D01*
X15111730Y111105188D01*
X15113000Y111125000D01*
X15111730Y111652812D01*
X15107158Y111672370D01*
X15099538Y111690912D01*
X15089124Y111707930D01*
X15076170Y111723170D01*
X15060930Y111736124D01*
X15043912Y111746538D01*
X15025370Y111754158D01*
X15005812Y111758729D01*
X14986000Y111760000D01*
X13970000Y111759492D01*
X13970000Y112268508D01*
X15005812Y112269270D01*
X15025370Y112273842D01*
X15043912Y112281462D01*
X15060930Y112291876D01*
X15076170Y112304830D01*
X15089124Y112320069D01*
X15099538Y112337088D01*
X15107158Y112355630D01*
X15111730Y112375188D01*
X15113000Y112395000D01*
X15111730Y112922812D01*
X15107158Y112942370D01*
X15099538Y112960912D01*
X15089124Y112977929D01*
X15076170Y112993170D01*
X15060930Y113006124D01*
X15043912Y113016538D01*
X15025370Y113024158D01*
X15005812Y113028730D01*
X14986000Y113030000D01*
X13970000Y113029492D01*
X13970000Y113538508D01*
X15005812Y113539269D01*
X15025370Y113543842D01*
X15043912Y113551462D01*
X15060930Y113561875D01*
X15076170Y113574830D01*
X15089124Y113590070D01*
X15099538Y113607088D01*
X15107158Y113625629D01*
X15111730Y113645188D01*
X15113000Y113664999D01*
X15111730Y114192812D01*
X15107158Y114212370D01*
X15099538Y114230912D01*
X15089124Y114247930D01*
X15076170Y114263170D01*
X15060930Y114276124D01*
X15043912Y114286537D01*
X15025370Y114294158D01*
X15005812Y114298730D01*
X14986000Y114300000D01*
X13970000Y114299492D01*
X13970000Y114807999D01*
X13970000Y114807999D02*
G37*
G54D11*
G36*
X12827000Y115443000D02*
X12828270Y114915187D01*
X12832841Y114895630D01*
X12840462Y114877087D01*
X12850875Y114860070D01*
X12863829Y114844830D01*
X12879070Y114831876D01*
X12896087Y114821462D01*
X12914629Y114813842D01*
X12934188Y114809270D01*
X12954000Y114807999D01*
X13960348Y114808507D01*
X13970000Y114807999D01*
X13970000Y114299492D01*
X12934188Y114298730D01*
X12914629Y114294158D01*
X12896087Y114286537D01*
X12879070Y114276124D01*
X12863829Y114263170D01*
X12850875Y114247930D01*
X12840462Y114230912D01*
X12832841Y114212370D01*
X12828270Y114192812D01*
X12827000Y114173000D01*
X12828270Y113645188D01*
X12832841Y113625629D01*
X12840462Y113607088D01*
X12850875Y113590070D01*
X12863829Y113574830D01*
X12879070Y113561875D01*
X12896087Y113551462D01*
X12914629Y113543842D01*
X12934188Y113539269D01*
X12954000Y113538000D01*
X13970000Y113538508D01*
X13970000Y113029492D01*
X12934188Y113028730D01*
X12914629Y113024158D01*
X12896087Y113016538D01*
X12879070Y113006124D01*
X12863829Y112993170D01*
X12850875Y112977929D01*
X12840462Y112960912D01*
X12832841Y112942370D01*
X12828270Y112922812D01*
X12827000Y112903000D01*
X12828270Y112375188D01*
X12832841Y112355630D01*
X12840462Y112337088D01*
X12850875Y112320069D01*
X12863829Y112304830D01*
X12879070Y112291876D01*
X12896087Y112281462D01*
X12914629Y112273842D01*
X12934188Y112269270D01*
X12954000Y112268000D01*
X13970000Y112268508D01*
X13970000Y111759492D01*
X12934188Y111758729D01*
X12914629Y111754158D01*
X12896087Y111746538D01*
X12879070Y111736124D01*
X12863829Y111723170D01*
X12850875Y111707930D01*
X12840462Y111690912D01*
X12832841Y111672370D01*
X12828270Y111652812D01*
X12827000Y111632999D01*
X12828270Y111105188D01*
X12832841Y111085630D01*
X12840462Y111067088D01*
X12850875Y111050070D01*
X12863829Y111034830D01*
X12879070Y111021876D01*
X12896087Y111011461D01*
X12914629Y111003842D01*
X12934188Y110999270D01*
X12954000Y110998000D01*
X13970000Y110998508D01*
X13970000Y108614464D01*
X13900150Y108585762D01*
X13804646Y108527087D01*
X13719555Y108454444D01*
X13646912Y108369354D01*
X13588237Y108273849D01*
X13545566Y108170472D01*
X13519403Y108061506D01*
X13510514Y107950000D01*
X13519403Y107838494D01*
X13545566Y107729528D01*
X13588237Y107626150D01*
X13646912Y107530646D01*
X13719555Y107445555D01*
X13804646Y107372912D01*
X13900150Y107314238D01*
X13970000Y107285536D01*
X13970000Y104394000D01*
X5588000Y104394000D01*
X4826000Y105155999D01*
X4826000Y110998508D01*
X5861812Y110999270D01*
X5881370Y111003842D01*
X5899912Y111011461D01*
X5916930Y111021876D01*
X5932170Y111034830D01*
X5945124Y111050070D01*
X5955538Y111067088D01*
X5963158Y111085630D01*
X5967730Y111105188D01*
X5969000Y111125000D01*
X5967730Y111652812D01*
X5963158Y111672370D01*
X5955538Y111690912D01*
X5945124Y111707930D01*
X5932170Y111723170D01*
X5916930Y111736124D01*
X5899912Y111746538D01*
X5881370Y111754158D01*
X5861812Y111758729D01*
X5842000Y111760000D01*
X4826000Y111759492D01*
X4826000Y112268508D01*
X5861812Y112269270D01*
X5881370Y112273842D01*
X5899912Y112281462D01*
X5916930Y112291876D01*
X5932170Y112304830D01*
X5945124Y112320069D01*
X5955538Y112337088D01*
X5963158Y112355630D01*
X5967730Y112375188D01*
X5969000Y112395000D01*
X5967730Y112922812D01*
X5963158Y112942370D01*
X5955538Y112960912D01*
X5945124Y112977929D01*
X5932170Y112993170D01*
X5916930Y113006124D01*
X5899912Y113016538D01*
X5881370Y113024158D01*
X5861812Y113028730D01*
X5842000Y113030000D01*
X4826000Y113029492D01*
X4826000Y113538508D01*
X5861812Y113539269D01*
X5881370Y113543842D01*
X5899912Y113551462D01*
X5916930Y113561875D01*
X5932170Y113574830D01*
X5945124Y113590070D01*
X5955538Y113607088D01*
X5963158Y113625629D01*
X5967730Y113645188D01*
X5969000Y113664999D01*
X5967730Y114192812D01*
X5963158Y114212370D01*
X5955538Y114230912D01*
X5945124Y114247930D01*
X5932170Y114263170D01*
X5916930Y114276124D01*
X5899912Y114286537D01*
X5881370Y114294158D01*
X5861812Y114298730D01*
X5842000Y114300000D01*
X4826000Y114299492D01*
X4826000Y114808507D01*
X5861812Y114809270D01*
X5881370Y114813842D01*
X5899912Y114821462D01*
X5916930Y114831876D01*
X5932170Y114844830D01*
X5945124Y114860070D01*
X5955538Y114877087D01*
X5963158Y114895630D01*
X5967730Y114915187D01*
X5969000Y114935000D01*
X5967730Y115462812D01*
X5963158Y115482370D01*
X5955538Y115500912D01*
X5945124Y115517930D01*
X5932170Y115533169D01*
X5916930Y115546124D01*
X5899912Y115556538D01*
X5881370Y115564157D01*
X5861812Y115568730D01*
X5842000Y115570000D01*
X4826000Y115569491D01*
X4826000Y116078508D01*
X5861812Y116079270D01*
X5881370Y116083841D01*
X5899912Y116091462D01*
X5916930Y116101876D01*
X5932170Y116114829D01*
X5945124Y116130070D01*
X5955538Y116147088D01*
X5963158Y116165630D01*
X5967730Y116185188D01*
X5969000Y116205000D01*
X5967730Y116732812D01*
X5963158Y116752369D01*
X5955538Y116770911D01*
X5945124Y116787930D01*
X5932170Y116803170D01*
X5916930Y116816123D01*
X5899912Y116826538D01*
X5881370Y116834158D01*
X5861812Y116838730D01*
X5842000Y116839999D01*
X4826000Y116839492D01*
X4826000Y117348508D01*
X5861812Y117349270D01*
X5881370Y117353842D01*
X5899912Y117361461D01*
X5916930Y117371876D01*
X5932170Y117384830D01*
X5945124Y117400070D01*
X5955538Y117417088D01*
X5963158Y117435630D01*
X5967730Y117455188D01*
X5969000Y117475000D01*
X5967730Y118002812D01*
X5963158Y118022370D01*
X5955538Y118040912D01*
X5945124Y118057930D01*
X5932170Y118073170D01*
X5916930Y118086124D01*
X5899912Y118096538D01*
X5881370Y118104158D01*
X5861812Y118108729D01*
X5842000Y118110000D01*
X4826000Y118109492D01*
X4826000Y118618508D01*
X5861812Y118619270D01*
X5881370Y118623842D01*
X5899912Y118631462D01*
X5916930Y118641876D01*
X5932170Y118654830D01*
X5945124Y118670069D01*
X5955538Y118687088D01*
X5963158Y118705630D01*
X5967730Y118725188D01*
X5969000Y118745000D01*
X5967730Y119272812D01*
X5963158Y119292370D01*
X5955538Y119310912D01*
X5945124Y119327929D01*
X5932170Y119343170D01*
X5916930Y119356124D01*
X5899912Y119366538D01*
X5881370Y119374158D01*
X5861812Y119378730D01*
X5842000Y119380000D01*
X4826000Y119379492D01*
X4826000Y119888508D01*
X5861812Y119889269D01*
X5881370Y119893842D01*
X5899912Y119901462D01*
X5916930Y119911875D01*
X5932170Y119924830D01*
X5945124Y119940070D01*
X5955538Y119957088D01*
X5963158Y119975629D01*
X5967730Y119995188D01*
X5969000Y120014999D01*
X5967730Y120542812D01*
X5963158Y120562370D01*
X5955538Y120580912D01*
X5945124Y120597930D01*
X5932170Y120613170D01*
X5916930Y120626124D01*
X5899912Y120636537D01*
X5881370Y120644158D01*
X5861812Y120648730D01*
X5842000Y120650000D01*
X4826000Y120649492D01*
X4826000Y121158507D01*
X5861812Y121159270D01*
X5881370Y121163842D01*
X5899912Y121171462D01*
X5916930Y121181876D01*
X5932170Y121194830D01*
X5945124Y121210070D01*
X5955538Y121227087D01*
X5963158Y121245630D01*
X5967730Y121265187D01*
X5969000Y121285000D01*
X5967730Y121812812D01*
X5963158Y121832370D01*
X5955538Y121850912D01*
X5945124Y121867930D01*
X5932170Y121883169D01*
X5916930Y121896124D01*
X5899912Y121906538D01*
X5881370Y121914157D01*
X5861812Y121918730D01*
X5842000Y121920000D01*
X4826000Y121919491D01*
X4826000Y122428508D01*
X5861812Y122429270D01*
X5881370Y122433841D01*
X5899912Y122441462D01*
X5916930Y122451876D01*
X5932170Y122464829D01*
X5945124Y122480070D01*
X5955538Y122497088D01*
X5963158Y122515630D01*
X5967730Y122535188D01*
X5969000Y122555000D01*
X5967730Y123082812D01*
X5963158Y123102369D01*
X5955538Y123120911D01*
X5945124Y123137930D01*
X5932170Y123153170D01*
X5916930Y123166123D01*
X5899912Y123176538D01*
X5881370Y123184158D01*
X5861812Y123188730D01*
X5842000Y123189999D01*
X4826000Y123189492D01*
X4826000Y125222000D01*
X13177266Y125222000D01*
X10917174Y122961908D01*
X10905744Y122952255D01*
X10866882Y122906536D01*
X10835386Y122855482D01*
X10812526Y122800110D01*
X10798556Y122741690D01*
X10798556Y122741690D01*
X10793730Y122682000D01*
X10795000Y122667014D01*
X10795000Y120299734D01*
X9647174Y119151908D01*
X9635744Y119142256D01*
X9596882Y119096536D01*
X9565386Y119045481D01*
X9542526Y118990110D01*
X9528556Y118931689D01*
X9528556Y118931689D01*
X9523730Y118872000D01*
X9525000Y118857014D01*
X9525000Y107442000D01*
X9528556Y107382309D01*
X9542526Y107323890D01*
X9565386Y107268517D01*
X9596882Y107217464D01*
X9635744Y107171744D01*
X9681464Y107132882D01*
X9732518Y107101386D01*
X9787890Y107078526D01*
X9846310Y107064556D01*
X9906000Y107059730D01*
X9965690Y107064556D01*
X10024110Y107078526D01*
X10079482Y107101386D01*
X10130536Y107132882D01*
X10176256Y107171744D01*
X10215118Y107217464D01*
X10246614Y107268517D01*
X10269474Y107323890D01*
X10283444Y107382309D01*
X10287000Y107442000D01*
X10287000Y118714266D01*
X11434826Y119862092D01*
X11446256Y119871744D01*
X11485118Y119917464D01*
X11485118Y119917464D01*
X11516614Y119968517D01*
X11539474Y120023890D01*
X11553444Y120082309D01*
X11558270Y120142000D01*
X11557000Y120156986D01*
X11557000Y122524266D01*
X13970000Y124937266D01*
X13970000Y123189492D01*
X13082270Y123188984D01*
X12934188Y123188730D01*
X12914629Y123184158D01*
X12896087Y123176538D01*
X12879070Y123166123D01*
X12863829Y123153170D01*
X12850875Y123137930D01*
X12840462Y123120911D01*
X12832841Y123102369D01*
X12828270Y123082812D01*
X12827000Y123063000D01*
X12828270Y122535188D01*
X12832841Y122515630D01*
X12840462Y122497088D01*
X12850875Y122480070D01*
X12863829Y122464829D01*
X12879070Y122451876D01*
X12896087Y122441462D01*
X12914629Y122433841D01*
X12934188Y122429270D01*
X12954000Y122428000D01*
X13970000Y122428508D01*
X13970000Y121919491D01*
X12934188Y121918730D01*
X12914629Y121914157D01*
X12896087Y121906538D01*
X12879070Y121896124D01*
X12863829Y121883169D01*
X12850875Y121867930D01*
X12840462Y121850912D01*
X12832841Y121832370D01*
X12828270Y121812812D01*
X12827000Y121793000D01*
X12828270Y121265187D01*
X12832841Y121245630D01*
X12840462Y121227087D01*
X12850875Y121210070D01*
X12863829Y121194830D01*
X12879070Y121181876D01*
X12896087Y121171462D01*
X12914629Y121163842D01*
X12934188Y121159270D01*
X12954000Y121157999D01*
X13970000Y121158507D01*
X13970000Y120649492D01*
X12934188Y120648730D01*
X12914629Y120644158D01*
X12896087Y120636537D01*
X12879070Y120626124D01*
X12863829Y120613170D01*
X12850875Y120597930D01*
X12840462Y120580912D01*
X12832841Y120562370D01*
X12828270Y120542812D01*
X12827000Y120523000D01*
X12828270Y119995188D01*
X12832841Y119975629D01*
X12840462Y119957088D01*
X12850875Y119940070D01*
X12863829Y119924830D01*
X12879070Y119911875D01*
X12896087Y119901462D01*
X12914629Y119893842D01*
X12934188Y119889269D01*
X12954000Y119888000D01*
X13970000Y119888508D01*
X13970000Y119379492D01*
X12934188Y119378730D01*
X12914629Y119374158D01*
X12896087Y119366538D01*
X12879070Y119356124D01*
X12863829Y119343170D01*
X12850875Y119327929D01*
X12840462Y119310912D01*
X12832841Y119292370D01*
X12828270Y119272812D01*
X12827000Y119253000D01*
X12828270Y118725188D01*
X12832841Y118705630D01*
X12840462Y118687088D01*
X12850875Y118670069D01*
X12863829Y118654830D01*
X12879070Y118641876D01*
X12896087Y118631462D01*
X12914629Y118623842D01*
X12934188Y118619270D01*
X12954000Y118618000D01*
X13970000Y118618508D01*
X13970000Y118109492D01*
X12934188Y118108729D01*
X12914629Y118104158D01*
X12896087Y118096538D01*
X12879070Y118086124D01*
X12863829Y118073170D01*
X12850875Y118057930D01*
X12840462Y118040912D01*
X12832841Y118022370D01*
X12828270Y118002812D01*
X12827000Y117982999D01*
X12828270Y117455188D01*
X12832841Y117435630D01*
X12840462Y117417088D01*
X12850875Y117400070D01*
X12863829Y117384830D01*
X12879070Y117371876D01*
X12896087Y117361461D01*
X12914629Y117353842D01*
X12934188Y117349270D01*
X12954000Y117348000D01*
X13970000Y117348508D01*
X13970000Y116839492D01*
X12934188Y116838730D01*
X12914629Y116834158D01*
X12896087Y116826538D01*
X12879070Y116816123D01*
X12863829Y116803170D01*
X12850875Y116787930D01*
X12840462Y116770911D01*
X12832841Y116752369D01*
X12828270Y116732812D01*
X12827000Y116713000D01*
X12828270Y116185188D01*
X12832841Y116165630D01*
X12840462Y116147088D01*
X12850875Y116130070D01*
X12863829Y116114829D01*
X12879070Y116101876D01*
X12896087Y116091462D01*
X12914629Y116083841D01*
X12934188Y116079270D01*
X12954000Y116078000D01*
X13970000Y116078508D01*
X13970000Y115570000D01*
X13960094Y115569491D01*
X13587730Y115569238D01*
X12934188Y115568730D01*
X12914629Y115564157D01*
X12896087Y115556538D01*
X12879070Y115546124D01*
X12863829Y115533169D01*
X12850875Y115517930D01*
X12840462Y115500912D01*
X12832841Y115482370D01*
X12828270Y115462812D01*
X12827000Y115443000D01*
X12827000Y115443000D02*
G37*
G54D11*
G36*
X4826000Y105155999D02*
X1016000Y108966000D01*
X1016000Y124968000D01*
X1270000Y125222000D01*
X4826000Y125222000D01*
X4826000Y123189492D01*
X3790188Y123188730D01*
X3770630Y123184158D01*
X3752087Y123176538D01*
X3735069Y123166123D01*
X3719830Y123153170D01*
X3706875Y123137930D01*
X3696462Y123120911D01*
X3688842Y123102369D01*
X3684270Y123082812D01*
X3682999Y123063000D01*
X3684270Y122535188D01*
X3688842Y122515630D01*
X3696462Y122497088D01*
X3706875Y122480070D01*
X3719830Y122464829D01*
X3735069Y122451876D01*
X3752087Y122441462D01*
X3770630Y122433841D01*
X3790188Y122429270D01*
X3810000Y122428000D01*
X4826000Y122428508D01*
X4826000Y121919491D01*
X3790188Y121918730D01*
X3770630Y121914157D01*
X3752087Y121906538D01*
X3735069Y121896124D01*
X3719830Y121883169D01*
X3706875Y121867930D01*
X3696462Y121850912D01*
X3688842Y121832370D01*
X3684270Y121812812D01*
X3682999Y121793000D01*
X3684270Y121265187D01*
X3688842Y121245630D01*
X3696462Y121227087D01*
X3706875Y121210070D01*
X3719830Y121194830D01*
X3735069Y121181876D01*
X3752087Y121171462D01*
X3770630Y121163842D01*
X3790188Y121159270D01*
X3810000Y121157999D01*
X4826000Y121158507D01*
X4826000Y120649492D01*
X3790188Y120648730D01*
X3770630Y120644158D01*
X3752087Y120636537D01*
X3735069Y120626124D01*
X3719830Y120613170D01*
X3706875Y120597930D01*
X3696462Y120580912D01*
X3688842Y120562370D01*
X3684270Y120542812D01*
X3682999Y120523000D01*
X3684270Y119995188D01*
X3688842Y119975629D01*
X3696462Y119957088D01*
X3706875Y119940070D01*
X3719830Y119924830D01*
X3735069Y119911875D01*
X3752087Y119901462D01*
X3770630Y119893842D01*
X3790188Y119889269D01*
X3810000Y119888000D01*
X4826000Y119888508D01*
X4826000Y119379492D01*
X3790188Y119378730D01*
X3770630Y119374158D01*
X3752087Y119366538D01*
X3735069Y119356124D01*
X3719830Y119343170D01*
X3706875Y119327929D01*
X3696462Y119310912D01*
X3688842Y119292370D01*
X3684270Y119272812D01*
X3682999Y119253000D01*
X3684270Y118725188D01*
X3688842Y118705630D01*
X3696462Y118687088D01*
X3706875Y118670069D01*
X3719830Y118654830D01*
X3735069Y118641876D01*
X3752087Y118631462D01*
X3770630Y118623842D01*
X3790188Y118619270D01*
X3810000Y118618000D01*
X4826000Y118618508D01*
X4826000Y118109492D01*
X3790188Y118108729D01*
X3770630Y118104158D01*
X3752087Y118096538D01*
X3735069Y118086124D01*
X3719830Y118073170D01*
X3706875Y118057930D01*
X3696462Y118040912D01*
X3688842Y118022370D01*
X3684270Y118002812D01*
X3682999Y117982999D01*
X3684270Y117455188D01*
X3688842Y117435630D01*
X3696462Y117417088D01*
X3706875Y117400070D01*
X3719830Y117384830D01*
X3735069Y117371876D01*
X3752087Y117361461D01*
X3770630Y117353842D01*
X3790188Y117349270D01*
X3810000Y117348000D01*
X4826000Y117348508D01*
X4826000Y116839492D01*
X3790188Y116838730D01*
X3770630Y116834158D01*
X3752087Y116826538D01*
X3735069Y116816123D01*
X3719830Y116803170D01*
X3706875Y116787930D01*
X3696462Y116770911D01*
X3688842Y116752369D01*
X3684270Y116732812D01*
X3682999Y116713000D01*
X3684270Y116185188D01*
X3688842Y116165630D01*
X3696462Y116147088D01*
X3706875Y116130070D01*
X3719830Y116114829D01*
X3735069Y116101876D01*
X3752087Y116091462D01*
X3770630Y116083841D01*
X3790188Y116079270D01*
X3810000Y116078000D01*
X4826000Y116078508D01*
X4826000Y115569491D01*
X3790188Y115568730D01*
X3770630Y115564157D01*
X3752087Y115556538D01*
X3735069Y115546124D01*
X3719830Y115533169D01*
X3706875Y115517930D01*
X3696462Y115500912D01*
X3688842Y115482370D01*
X3684270Y115462812D01*
X3682999Y115443000D01*
X3684270Y114915187D01*
X3688842Y114895630D01*
X3696462Y114877087D01*
X3706875Y114860070D01*
X3719830Y114844830D01*
X3735069Y114831876D01*
X3752087Y114821462D01*
X3770630Y114813842D01*
X3790188Y114809270D01*
X3810000Y114807999D01*
X4826000Y114808507D01*
X4826000Y114299492D01*
X3790188Y114298730D01*
X3770630Y114294158D01*
X3752087Y114286537D01*
X3735069Y114276124D01*
X3719830Y114263170D01*
X3706875Y114247930D01*
X3696462Y114230912D01*
X3688842Y114212370D01*
X3684270Y114192812D01*
X3682999Y114173000D01*
X3684270Y113645188D01*
X3688842Y113625629D01*
X3696462Y113607088D01*
X3706875Y113590070D01*
X3719830Y113574830D01*
X3735069Y113561875D01*
X3752087Y113551462D01*
X3770630Y113543842D01*
X3790188Y113539269D01*
X3810000Y113538000D01*
X4826000Y113538508D01*
X4826000Y113029492D01*
X3790188Y113028730D01*
X3770630Y113024158D01*
X3752087Y113016538D01*
X3735069Y113006124D01*
X3719830Y112993170D01*
X3706875Y112977929D01*
X3696462Y112960912D01*
X3688842Y112942370D01*
X3684270Y112922812D01*
X3682999Y112903000D01*
X3684270Y112375188D01*
X3688842Y112355630D01*
X3696462Y112337088D01*
X3706875Y112320069D01*
X3719830Y112304830D01*
X3735069Y112291876D01*
X3752087Y112281462D01*
X3770630Y112273842D01*
X3790188Y112269270D01*
X3810000Y112268000D01*
X4826000Y112268508D01*
X4826000Y111759492D01*
X3790188Y111758729D01*
X3770630Y111754158D01*
X3752087Y111746538D01*
X3735069Y111736124D01*
X3719830Y111723170D01*
X3706875Y111707930D01*
X3696462Y111690912D01*
X3688842Y111672370D01*
X3684270Y111652812D01*
X3682999Y111632999D01*
X3684270Y111105188D01*
X3688842Y111085630D01*
X3696462Y111067088D01*
X3706875Y111050070D01*
X3719830Y111034830D01*
X3735069Y111021876D01*
X3752087Y111011461D01*
X3770630Y111003842D01*
X3790188Y110999270D01*
X3810000Y110998000D01*
X4826000Y110998508D01*
X4826000Y105155999D01*
X4826000Y105155999D02*
G37*
G54D12*
X9906000Y118872000D02*
X11176000Y120142000D01*
G54D12*
X11176000Y120142000D02*
X11176000Y122682000D01*
G54D12*
X11176000Y122682000D02*
X13716000Y125222000D01*
G54D12*
X13716000Y125222000D02*
X13716000Y125984000D01*
G54D12*
X9906000Y107442000D02*
X9906000Y118872000D01*
G54D12*
X13970000Y115189000D02*
X21717000Y115189000D01*
G54D13*
X4064000Y122809000D02*
X5588000Y122809000D01*
G54D13*
X13208000Y122809000D02*
X14731999Y122809000D01*
G54D13*
X4064000Y121539000D02*
X5588000Y121539000D01*
G54D13*
X13208000Y121539000D02*
X14731999Y121539000D01*
G54D13*
X4064000Y120269000D02*
X5588000Y120269000D01*
G54D13*
X13208000Y120269000D02*
X14731999Y120269000D01*
G54D13*
X4064000Y118998999D02*
X5588000Y118998999D01*
G54D13*
X4064000Y117729000D02*
X5588000Y117729000D01*
G54D13*
X4064000Y116459000D02*
X5588000Y116459000D01*
G54D13*
X4064000Y115189000D02*
X5588000Y115189000D01*
G54D13*
X13208000Y115189000D02*
X14731999Y115189000D01*
G54D13*
X13208000Y116459000D02*
X14731999Y116459000D01*
G54D13*
X13208000Y117729000D02*
X14731999Y117729000D01*
G54D13*
X13208000Y118998999D02*
X14731999Y118998999D01*
G54D13*
X4064000Y113919000D02*
X5588000Y113919000D01*
G54D13*
X4064000Y112648999D02*
X5588000Y112648999D01*
G54D13*
X4064000Y111379000D02*
X5588000Y111379000D01*
G54D13*
X13208000Y111379000D02*
X14731999Y111379000D01*
G54D13*
X13208000Y112648999D02*
X14731999Y112648999D01*
G54D13*
X13208000Y113919000D02*
X14731999Y113919000D01*
G54D14*
X14224000Y107950000D02*
X14224000Y107950000D01*
G54D15*
X-287012Y-24707090D02*
X-56042Y-24611419D01*
G54D15*
X-171527Y-24659254D02*
X211155Y-25583134D01*
G54D15*
X095670Y-25630969D02*
X326640Y-25535299D01*
G54D15*
X954573Y-24869303D02*
X1098080Y-25215758D01*
G54D15*
X954573Y-24869303D02*
X1022223Y-24705983D01*
G54D15*
X1022223Y-24705983D02*
X1137708Y-24658147D01*
G54D15*
X1137708Y-24658147D02*
X1301028Y-24725797D01*
G54D15*
X1301028Y-24725797D02*
X1444534Y-25072252D01*
G54D15*
X1301028Y-24725797D02*
X1368678Y-24562476D01*
G54D15*
X1368678Y-24562476D02*
X1484163Y-24514641D01*
G54D15*
X1484163Y-24514641D02*
X1647483Y-24582290D01*
G54D15*
X1647483Y-24582290D02*
X1790989Y-24928745D01*
G54D15*
X791253Y-24801654D02*
X954573Y-24869303D01*
G54D15*
X1841498Y-24501927D02*
X2128510Y-25194837D01*
G54D15*
X1678177Y-24434277D02*
X1841498Y-24501927D01*
G54D15*
X1841498Y-24501927D02*
X1909147Y-24338607D01*
G54D15*
X1909147Y-24338607D02*
X2140117Y-24242936D01*
G54D15*
X2140117Y-24242936D02*
X2303437Y-24310585D01*
G54D15*
X2303437Y-24310585D02*
X2399108Y-24541555D01*
G54D15*
X2331459Y-24704875D02*
X2399108Y-24541555D01*
G54D15*
X2100489Y-24800546D02*
X2331459Y-24704875D01*
G54D15*
X1937169Y-24732897D02*
X2100489Y-24800546D01*
G54D15*
X2612937Y-24182386D02*
X2708608Y-24413356D01*
G54D15*
X2612937Y-24182386D02*
X2680587Y-24019066D01*
G54D15*
X2680587Y-24019066D02*
X2911557Y-23923395D01*
G54D15*
X2911557Y-23923395D02*
X3074877Y-23991045D01*
G54D15*
X3074877Y-23991045D02*
X3170548Y-24222014D01*
G54D15*
X3102898Y-24385335D02*
X3170548Y-24222014D01*
G54D15*
X2871928Y-24481006D02*
X3102898Y-24385335D01*
G54D15*
X2708608Y-24413356D02*
X2871928Y-24481006D01*
G54D15*
X3615346Y-23767175D02*
X3758853Y-24113630D01*
G54D15*
X3615346Y-23767175D02*
X3682996Y-23603854D01*
G54D15*
X3682996Y-23603854D02*
X3913966Y-23508184D01*
G54D15*
X3452026Y-23699525D02*
X3615346Y-23767175D01*
G54D15*
X4263094Y-22822374D02*
X4597942Y-23630769D01*
G54D15*
X4597942Y-23630769D02*
X4761262Y-23698418D01*
G54D15*
X4291115Y-23216664D02*
X4522085Y-23120993D01*
G54D15*
X5384881Y-23440107D02*
X5731336Y-23296600D01*
G54D15*
X5221560Y-23372457D02*
X5384881Y-23440107D01*
G54D15*
X5125889Y-23141487D02*
X5221560Y-23372457D01*
G54D15*
X5125889Y-23141487D02*
X5193539Y-22978167D01*
G54D15*
X5193539Y-22978167D02*
X5424509Y-22882496D01*
G54D15*
X5424509Y-22882496D02*
X5587829Y-22950146D01*
G54D15*
X5173725Y-23256972D02*
X5635665Y-23065631D01*
G54D15*
X5635665Y-23065631D02*
X5587829Y-22950146D01*
G54D15*
X6235576Y-22005345D02*
X6618260Y-22929224D01*
G54D15*
X6502775Y-22977060D02*
X6570424Y-22813739D01*
G54D15*
X6271805Y-23072731D02*
X6502775Y-22977060D01*
G54D15*
X6108485Y-23005081D02*
X6271805Y-23072731D01*
G54D15*
X6012814Y-22774111D02*
X6108485Y-23005081D01*
G54D15*
X6012814Y-22774111D02*
X6080463Y-22610791D01*
G54D15*
X6080463Y-22610791D02*
X6311433Y-22515120D01*
G54D15*
X6311433Y-22515120D02*
X6474754Y-22582770D01*
G54D15*
X8086618Y-21509216D02*
X8096185Y-21532313D01*
G54D15*
X8230125Y-21855671D02*
X8373631Y-22202126D01*
G54D15*
X9084713Y-21501689D02*
X9228220Y-21848144D01*
G54D15*
X9084713Y-21501689D02*
X9152363Y-21338368D01*
G54D15*
X9152363Y-21338368D02*
X9267848Y-21290533D01*
G54D15*
X9267848Y-21290533D02*
X9431168Y-21358183D01*
G54D15*
X9431168Y-21358183D02*
X9574674Y-21704637D01*
G54D15*
X8921393Y-21434039D02*
X9084713Y-21501689D01*
G54D15*
X9732460Y-20556888D02*
X10067308Y-21365283D01*
G54D15*
X10067308Y-21365283D02*
X10230629Y-21432932D01*
G54D15*
X9760482Y-20951178D02*
X9991452Y-20855507D01*
G54D15*
X10595256Y-20876001D02*
X10690927Y-21106971D01*
G54D15*
X10595256Y-20876001D02*
X10662906Y-20712681D01*
G54D15*
X10662906Y-20712681D02*
X10893876Y-20617010D01*
G54D15*
X10893876Y-20617010D02*
X11057196Y-20684660D01*
G54D15*
X11057196Y-20684660D02*
X11152867Y-20915630D01*
G54D15*
X11085217Y-21078950D02*
X11152867Y-20915630D01*
G54D15*
X10854248Y-21174621D02*
X11085217Y-21078950D01*
G54D15*
X10690927Y-21106971D02*
X10854248Y-21174621D01*
G54D15*
X13035330Y-19188795D02*
X13198650Y-19256444D01*
G54D15*
X12688875Y-19332301D02*
X13035330Y-19188795D01*
G54D15*
X12621225Y-19495621D02*
X12688875Y-19332301D01*
G54D15*
X12621225Y-19495621D02*
X12908238Y-20188531D01*
G54D15*
X12908238Y-20188531D02*
X13071558Y-20256181D01*
G54D15*
X13071558Y-20256181D02*
X13418013Y-20112674D01*
G54D15*
X13418013Y-20112674D02*
X13485663Y-19949354D01*
G54D15*
X13389992Y-19718384D02*
X13485663Y-19949354D01*
G54D15*
X13226672Y-19650735D02*
X13389992Y-19718384D01*
G54D15*
X12995702Y-19746405D02*
X13226672Y-19650735D01*
G54D15*
X13460314Y-19012760D02*
X13842998Y-19936640D01*
G54D15*
X13842998Y-19936640D02*
X14304938Y-19745298D01*
G54D15*
X14347239Y-18645384D02*
X14578209Y-18549713D01*
G54D15*
X14462724Y-18597549D02*
X14845407Y-19521428D01*
G54D15*
X14729922Y-19569264D02*
X14960892Y-19473593D01*
G54D15*
X15234163Y-18278008D02*
X15616847Y-19201888D01*
G54D15*
X15234163Y-18278008D02*
X15696103Y-18086666D01*
G54D15*
X15406371Y-18693754D02*
X15752825Y-18550248D01*
G54D15*
X17989270Y-17678001D02*
X18152591Y-17745651D01*
G54D15*
X17758301Y-17773672D02*
X17989270Y-17678001D01*
G54D15*
X17690651Y-17936993D02*
X17758301Y-17773672D01*
G54D15*
X17690651Y-17936993D02*
X17786322Y-18167963D01*
G54D15*
X17786322Y-18167963D02*
X17949642Y-18235612D01*
G54D15*
X18104755Y-17630166D02*
X18248262Y-17976621D01*
G54D15*
X18248262Y-17976621D02*
X18411582Y-18044270D01*
G54D15*
X17949642Y-18235612D02*
X18180612Y-18139941D01*
G54D15*
X18180612Y-18139941D02*
X18248262Y-17976621D01*
G54D15*
X18693060Y-17521781D02*
X18836567Y-17868236D01*
G54D15*
X18693060Y-17521781D02*
X18760710Y-17358461D01*
G54D15*
X18760710Y-17358461D02*
X18876195Y-17310625D01*
G54D15*
X18876195Y-17310625D02*
X19039515Y-17378275D01*
G54D15*
X19039515Y-17378275D02*
X19183021Y-17724730D01*
G54D15*
X18529740Y-17454132D02*
X18693060Y-17521781D01*
G54D15*
X19687262Y-16433474D02*
X20069946Y-17357354D01*
G54D15*
X19954461Y-17405189D02*
X20022110Y-17241869D01*
G54D15*
X19723491Y-17500860D02*
X19954461Y-17405189D01*
G54D15*
X19560171Y-17433210D02*
X19723491Y-17500860D01*
G54D15*
X19464500Y-17202240D02*
X19560171Y-17433210D01*
G54D15*
X19464500Y-17202240D02*
X19532149Y-17038920D01*
G54D15*
X19532149Y-17038920D02*
X19763119Y-16943249D01*
G54D15*
X19763119Y-16943249D02*
X19926440Y-17010899D01*
G54D15*
X21797296Y-16235965D02*
X21940802Y-16582420D01*
G54D15*
X21797296Y-16235965D02*
X21864945Y-16072644D01*
G54D15*
X21864945Y-16072644D02*
X21980430Y-16024809D01*
G54D15*
X21980430Y-16024809D02*
X22143750Y-16092459D01*
G54D15*
X22143750Y-16092459D02*
X22287257Y-16438913D01*
G54D15*
X22143750Y-16092459D02*
X22211400Y-15929138D01*
G54D15*
X22211400Y-15929138D02*
X22326885Y-15881303D01*
G54D15*
X22326885Y-15881303D02*
X22490205Y-15948952D01*
G54D15*
X22490205Y-15948952D02*
X22633712Y-16295407D01*
G54D15*
X21633975Y-16168315D02*
X21797296Y-16235965D01*
G54D15*
X22568735Y-15916424D02*
X22664406Y-16147394D01*
G54D15*
X22568735Y-15916424D02*
X22636385Y-15753104D01*
G54D15*
X22636385Y-15753104D02*
X22867354Y-15657433D01*
G54D15*
X22867354Y-15657433D02*
X23030675Y-15725082D01*
G54D15*
X23030675Y-15725082D02*
X23126346Y-15956052D01*
G54D15*
X23058696Y-16119373D02*
X23126346Y-15956052D01*
G54D15*
X22827726Y-16215044D02*
X23058696Y-16119373D01*
G54D15*
X22664406Y-16147394D02*
X22827726Y-16215044D01*
G54D15*
X23678422Y-14780282D02*
X24061105Y-15704161D01*
G54D15*
X23945620Y-15751997D02*
X24013270Y-15588676D01*
G54D15*
X23714651Y-15847667D02*
X23945620Y-15751997D01*
G54D15*
X23551330Y-15780018D02*
X23714651Y-15847667D01*
G54D15*
X23455659Y-15549048D02*
X23551330Y-15780018D01*
G54D15*
X23455659Y-15549048D02*
X23523309Y-15385728D01*
G54D15*
X23523309Y-15385728D02*
X23754279Y-15290057D01*
G54D15*
X23754279Y-15290057D02*
X23917599Y-15357706D01*
G54D15*
X24199077Y-14835217D02*
X24208645Y-14858314D01*
G54D15*
X24342584Y-15181672D02*
X24486090Y-15528127D01*
G54D15*
X25005831Y-14365750D02*
X25340679Y-15174145D01*
G54D15*
X25005831Y-14365750D02*
X25073480Y-14202430D01*
G54D15*
X25073480Y-14202430D02*
X25188965Y-14154594D01*
G54D15*
X25033852Y-14760040D02*
X25264822Y-14664369D01*
G54D15*
X25677285Y-14222924D02*
X25686852Y-14246021D01*
G54D15*
X25820791Y-14569378D02*
X25964297Y-14915833D01*
G54D15*
X26818886Y-14561851D02*
X27165341Y-14418345D01*
G54D15*
X26655565Y-14494202D02*
X26818886Y-14561851D01*
G54D15*
X26559895Y-14263232D02*
X26655565Y-14494202D01*
G54D15*
X26559895Y-14263232D02*
X26627544Y-14099911D01*
G54D15*
X26627544Y-14099911D02*
X26858514Y-14004240D01*
G54D15*
X26858514Y-14004240D02*
X27021834Y-14071890D01*
G54D15*
X26607730Y-14378717D02*
X27069670Y-14187375D01*
G54D15*
X27069670Y-14187375D02*
X27021834Y-14071890D01*
G54D15*
X27669582Y-13127089D02*
X28052265Y-14050969D01*
G54D15*
X27936780Y-14098804D02*
X28004430Y-13935484D01*
G54D15*
X27705810Y-14194475D02*
X27936780Y-14098804D01*
G54D15*
X27542490Y-14126825D02*
X27705810Y-14194475D01*
G54D15*
X27446819Y-13895856D02*
X27542490Y-14126825D01*
G54D15*
X27446819Y-13895856D02*
X27514468Y-13732535D01*
G54D15*
X27514468Y-13732535D02*
X27745438Y-13636864D01*
G54D15*
X27745438Y-13636864D02*
X27908759Y-13704514D01*
G54D15*
X28429414Y-13759449D02*
X28477250Y-13874934D01*
G54D15*
X28094566Y-12951055D02*
X28333743Y-13528480D01*
M02*
