%FSLAX36Y36*%
%MOMM*%
%LPD*%
%ADD11C,0.00100*%
%ADD12C,0.25400*%
%ADD13R,0.50800X0.50800*%
%ADD14C,0.91440*%
G54D11*
G36*
X17907508Y125222000D02*
X18288000Y125222000D01*
X20828000Y122682000D01*
X20828000Y115570000D01*
X17907508Y115570000D01*
X17907508Y119443499D01*
X17931384Y119453406D01*
X18098516Y119540528D01*
X18257520Y119641874D01*
X18407126Y119756427D01*
X18546064Y119883935D01*
X18673572Y120022874D01*
X18788126Y120172480D01*
X18889472Y120331483D01*
X18976594Y120498616D01*
X19048730Y120672859D01*
X19105372Y120852692D01*
X19146266Y121036842D01*
X19170904Y121223531D01*
X19179032Y121412000D01*
X19174714Y121471944D01*
X19160744Y121530618D01*
X19137630Y121585990D01*
X19106388Y121637298D01*
X19067272Y121683272D01*
X19021298Y121722388D01*
X18969990Y121753630D01*
X18914618Y121776744D01*
X18855944Y121790714D01*
X18796000Y121795539D01*
X18736056Y121790714D01*
X18677382Y121776744D01*
X18622010Y121753630D01*
X18570702Y121722388D01*
X18524728Y121683272D01*
X18485612Y121637298D01*
X18454370Y121585990D01*
X18431256Y121530618D01*
X18417286Y121471944D01*
X18413730Y121412000D01*
X18409666Y121290334D01*
X18393664Y121169430D01*
X18367502Y121050304D01*
X18330672Y120934226D01*
X18284190Y120821704D01*
X18227802Y120713500D01*
X18162270Y120610630D01*
X18088102Y120514110D01*
X18005806Y120424194D01*
X17915890Y120341898D01*
X17907508Y120335294D01*
X17907508Y125222000D01*
X17907508Y125222000D02*
G37*
G54D11*
G36*
X17907508Y114807999D02*
X20828000Y114807999D01*
X20828000Y106680000D01*
X18542000Y104394000D01*
X17907508Y104394000D01*
X17907508Y114807999D01*
X17907508Y114807999D02*
G37*
G54D11*
G36*
X13970000Y124937266D02*
X13974825Y124942092D01*
X13986256Y124951744D01*
X14025118Y124997210D01*
X14025118Y124997464D01*
X14056613Y125048518D01*
X14079474Y125103890D01*
X14093444Y125162310D01*
X14098270Y125222000D01*
X17907508Y125222000D01*
X17907508Y120335294D01*
X17819370Y120267730D01*
X17716500Y120202198D01*
X17608296Y120145810D01*
X17495774Y120099328D01*
X17379696Y120062498D01*
X17260570Y120036336D01*
X17139666Y120020333D01*
X17018000Y120014999D01*
X16958310Y120011443D01*
X16899890Y119997474D01*
X16844518Y119974614D01*
X16793464Y119943118D01*
X16747743Y119904256D01*
X16708882Y119858536D01*
X16677386Y119807482D01*
X16654526Y119752110D01*
X16640555Y119693690D01*
X16635730Y119634000D01*
X16640555Y119574310D01*
X16654526Y119515890D01*
X16677386Y119460518D01*
X16708882Y119409464D01*
X16747743Y119363744D01*
X16793464Y119324882D01*
X16844518Y119293385D01*
X16899890Y119270526D01*
X16958310Y119256556D01*
X17018000Y119253000D01*
X17206468Y119259096D01*
X17393158Y119283734D01*
X17577308Y119324628D01*
X17757140Y119381270D01*
X17907508Y119443499D01*
X17907508Y115570000D01*
X13970000Y115570000D01*
X13970000Y116078508D01*
X15005812Y116079270D01*
X15025370Y116083841D01*
X15043912Y116091462D01*
X15060930Y116101876D01*
X15076170Y116114829D01*
X15089124Y116130070D01*
X15099538Y116147088D01*
X15107158Y116165630D01*
X15111730Y116185188D01*
X15113000Y116205000D01*
X15111730Y116732812D01*
X15107158Y116752369D01*
X15099538Y116770911D01*
X15089124Y116787930D01*
X15076170Y116803170D01*
X15060930Y116816123D01*
X15043912Y116826538D01*
X15025370Y116834158D01*
X15005812Y116838730D01*
X14986000Y116839999D01*
X13970000Y116839492D01*
X13970000Y117348508D01*
X15005812Y117349270D01*
X15025370Y117353842D01*
X15043912Y117361461D01*
X15060930Y117371876D01*
X15076170Y117384830D01*
X15089124Y117400070D01*
X15099538Y117417088D01*
X15107158Y117435630D01*
X15111730Y117455188D01*
X15113000Y117475000D01*
X15111730Y118002812D01*
X15107158Y118022370D01*
X15099538Y118040912D01*
X15089124Y118057930D01*
X15076170Y118073170D01*
X15060930Y118086124D01*
X15043912Y118096538D01*
X15025370Y118104158D01*
X15005812Y118108729D01*
X14986000Y118110000D01*
X13970000Y118109492D01*
X13970000Y118618508D01*
X15005812Y118619270D01*
X15025370Y118623842D01*
X15043912Y118631462D01*
X15060930Y118641876D01*
X15076170Y118654830D01*
X15089124Y118670069D01*
X15099538Y118687088D01*
X15107158Y118705630D01*
X15111730Y118725188D01*
X15113000Y118745000D01*
X15111730Y119272812D01*
X15107158Y119292370D01*
X15099538Y119310912D01*
X15089124Y119327929D01*
X15076170Y119343170D01*
X15060930Y119356124D01*
X15043912Y119366538D01*
X15025370Y119374158D01*
X15005812Y119378730D01*
X14986000Y119380000D01*
X13970000Y119379492D01*
X13970000Y119888508D01*
X15005812Y119889269D01*
X15025370Y119893842D01*
X15043912Y119901462D01*
X15060930Y119911875D01*
X15076170Y119924830D01*
X15089124Y119940070D01*
X15099538Y119957088D01*
X15107158Y119975629D01*
X15111730Y119995188D01*
X15113000Y120014999D01*
X15111730Y120542812D01*
X15107158Y120562370D01*
X15099538Y120580912D01*
X15089124Y120597930D01*
X15076170Y120613170D01*
X15060930Y120626124D01*
X15043912Y120636537D01*
X15025370Y120644158D01*
X15005812Y120648730D01*
X14986000Y120650000D01*
X13970000Y120649492D01*
X13970000Y121158507D01*
X15005812Y121159270D01*
X15025370Y121163842D01*
X15043912Y121171462D01*
X15060930Y121181876D01*
X15076170Y121194830D01*
X15089124Y121210070D01*
X15099538Y121227087D01*
X15107158Y121245630D01*
X15111730Y121265187D01*
X15113000Y121285000D01*
X15111730Y121812812D01*
X15107158Y121832370D01*
X15099538Y121850912D01*
X15089124Y121867930D01*
X15076170Y121883169D01*
X15060930Y121896124D01*
X15043912Y121906538D01*
X15025370Y121914157D01*
X15005812Y121918730D01*
X14986000Y121920000D01*
X13970000Y121919491D01*
X13970000Y122428508D01*
X15005812Y122429270D01*
X15025370Y122433841D01*
X15043912Y122441462D01*
X15060930Y122451876D01*
X15076170Y122464829D01*
X15089124Y122480070D01*
X15099538Y122497088D01*
X15107158Y122515630D01*
X15111730Y122535188D01*
X15113000Y122555000D01*
X15111730Y123082812D01*
X15107158Y123102369D01*
X15099538Y123120911D01*
X15089124Y123137930D01*
X15076170Y123153170D01*
X15060930Y123166123D01*
X15043912Y123176538D01*
X15025370Y123184158D01*
X15005812Y123188730D01*
X14986000Y123189999D01*
X13970000Y123189492D01*
X13970000Y124937266D01*
X13970000Y124937266D02*
G37*
G54D11*
G36*
X13970000Y114807999D02*
X17907508Y114807999D01*
X17907508Y104394000D01*
X13970000Y104394000D01*
X13970000Y107285536D01*
X14003528Y107271566D01*
X14112494Y107245404D01*
X14224000Y107236514D01*
X14335505Y107245404D01*
X14444471Y107271566D01*
X14547850Y107314238D01*
X14643354Y107372912D01*
X14728444Y107445555D01*
X14801088Y107530646D01*
X14859762Y107626150D01*
X14902433Y107729528D01*
X14928596Y107838494D01*
X14935200Y107950000D01*
X14928596Y108061506D01*
X14902433Y108170472D01*
X14859762Y108273849D01*
X14801088Y108369354D01*
X14728444Y108454444D01*
X14643354Y108527087D01*
X14547850Y108585762D01*
X14444471Y108628433D01*
X14335505Y108654595D01*
X14224000Y108663486D01*
X14112494Y108654595D01*
X14003528Y108628433D01*
X13970000Y108614464D01*
X13970000Y110998508D01*
X15005812Y110999270D01*
X15025370Y111003842D01*
X15043912Y111011461D01*
X15060930Y111021876D01*
X15076170Y111034830D01*
X15089124Y111050070D01*
X15099538Y111067088D01*
X15107158Y111085630D01*
X15111730Y111105188D01*
X15113000Y111125000D01*
X15111730Y111652812D01*
X15107158Y111672370D01*
X15099538Y111690912D01*
X15089124Y111707930D01*
X15076170Y111723170D01*
X15060930Y111736124D01*
X15043912Y111746538D01*
X15025370Y111754158D01*
X15005812Y111758729D01*
X14986000Y111760000D01*
X13970000Y111759492D01*
X13970000Y112268508D01*
X15005812Y112269270D01*
X15025370Y112273842D01*
X15043912Y112281462D01*
X15060930Y112291876D01*
X15076170Y112304830D01*
X15089124Y112320069D01*
X15099538Y112337088D01*
X15107158Y112355630D01*
X15111730Y112375188D01*
X15113000Y112395000D01*
X15111730Y112922812D01*
X15107158Y112942370D01*
X15099538Y112960912D01*
X15089124Y112977929D01*
X15076170Y112993170D01*
X15060930Y113006124D01*
X15043912Y113016538D01*
X15025370Y113024158D01*
X15005812Y113028730D01*
X14986000Y113030000D01*
X13970000Y113029492D01*
X13970000Y113538508D01*
X15005812Y113539269D01*
X15025370Y113543842D01*
X15043912Y113551462D01*
X15060930Y113561875D01*
X15076170Y113574830D01*
X15089124Y113590070D01*
X15099538Y113607088D01*
X15107158Y113625629D01*
X15111730Y113645188D01*
X15113000Y113664999D01*
X15111730Y114192812D01*
X15107158Y114212370D01*
X15099538Y114230912D01*
X15089124Y114247930D01*
X15076170Y114263170D01*
X15060930Y114276124D01*
X15043912Y114286537D01*
X15025370Y114294158D01*
X15005812Y114298730D01*
X14986000Y114300000D01*
X13970000Y114299492D01*
X13970000Y114807999D01*
X13970000Y114807999D02*
G37*
G54D11*
G36*
X12827000Y115443000D02*
X12828270Y114915187D01*
X12832841Y114895630D01*
X12840462Y114877087D01*
X12850875Y114860070D01*
X12863829Y114844830D01*
X12879070Y114831876D01*
X12896087Y114821462D01*
X12914629Y114813842D01*
X12934188Y114809270D01*
X12954000Y114807999D01*
X13960348Y114808507D01*
X13970000Y114807999D01*
X13970000Y114299492D01*
X12934188Y114298730D01*
X12914629Y114294158D01*
X12896087Y114286537D01*
X12879070Y114276124D01*
X12863829Y114263170D01*
X12850875Y114247930D01*
X12840462Y114230912D01*
X12832841Y114212370D01*
X12828270Y114192812D01*
X12827000Y114173000D01*
X12828270Y113645188D01*
X12832841Y113625629D01*
X12840462Y113607088D01*
X12850875Y113590070D01*
X12863829Y113574830D01*
X12879070Y113561875D01*
X12896087Y113551462D01*
X12914629Y113543842D01*
X12934188Y113539269D01*
X12954000Y113538000D01*
X13970000Y113538508D01*
X13970000Y113029492D01*
X12934188Y113028730D01*
X12914629Y113024158D01*
X12896087Y113016538D01*
X12879070Y113006124D01*
X12863829Y112993170D01*
X12850875Y112977929D01*
X12840462Y112960912D01*
X12832841Y112942370D01*
X12828270Y112922812D01*
X12827000Y112903000D01*
X12828270Y112375188D01*
X12832841Y112355630D01*
X12840462Y112337088D01*
X12850875Y112320069D01*
X12863829Y112304830D01*
X12879070Y112291876D01*
X12896087Y112281462D01*
X12914629Y112273842D01*
X12934188Y112269270D01*
X12954000Y112268000D01*
X13970000Y112268508D01*
X13970000Y111759492D01*
X12934188Y111758729D01*
X12914629Y111754158D01*
X12896087Y111746538D01*
X12879070Y111736124D01*
X12863829Y111723170D01*
X12850875Y111707930D01*
X12840462Y111690912D01*
X12832841Y111672370D01*
X12828270Y111652812D01*
X12827000Y111632999D01*
X12828270Y111105188D01*
X12832841Y111085630D01*
X12840462Y111067088D01*
X12850875Y111050070D01*
X12863829Y111034830D01*
X12879070Y111021876D01*
X12896087Y111011461D01*
X12914629Y111003842D01*
X12934188Y110999270D01*
X12954000Y110998000D01*
X13970000Y110998508D01*
X13970000Y108614464D01*
X13900150Y108585762D01*
X13804646Y108527087D01*
X13719555Y108454444D01*
X13646912Y108369354D01*
X13588237Y108273849D01*
X13545566Y108170472D01*
X13519403Y108061506D01*
X13510514Y107950000D01*
X13519403Y107838494D01*
X13545566Y107729528D01*
X13588237Y107626150D01*
X13646912Y107530646D01*
X13719555Y107445555D01*
X13804646Y107372912D01*
X13900150Y107314238D01*
X13970000Y107285536D01*
X13970000Y104394000D01*
X5588000Y104394000D01*
X4826000Y105155999D01*
X4826000Y110998508D01*
X5861812Y110999270D01*
X5881370Y111003842D01*
X5899912Y111011461D01*
X5916930Y111021876D01*
X5932170Y111034830D01*
X5945124Y111050070D01*
X5955538Y111067088D01*
X5963158Y111085630D01*
X5967730Y111105188D01*
X5969000Y111125000D01*
X5967730Y111652812D01*
X5963158Y111672370D01*
X5955538Y111690912D01*
X5945124Y111707930D01*
X5932170Y111723170D01*
X5916930Y111736124D01*
X5899912Y111746538D01*
X5881370Y111754158D01*
X5861812Y111758729D01*
X5842000Y111760000D01*
X4826000Y111759492D01*
X4826000Y112268508D01*
X5861812Y112269270D01*
X5881370Y112273842D01*
X5899912Y112281462D01*
X5916930Y112291876D01*
X5932170Y112304830D01*
X5945124Y112320069D01*
X5955538Y112337088D01*
X5963158Y112355630D01*
X5967730Y112375188D01*
X5969000Y112395000D01*
X5967730Y112922812D01*
X5963158Y112942370D01*
X5955538Y112960912D01*
X5945124Y112977929D01*
X5932170Y112993170D01*
X5916930Y113006124D01*
X5899912Y113016538D01*
X5881370Y113024158D01*
X5861812Y113028730D01*
X5842000Y113030000D01*
X4826000Y113029492D01*
X4826000Y113538508D01*
X5861812Y113539269D01*
X5881370Y113543842D01*
X5899912Y113551462D01*
X5916930Y113561875D01*
X5932170Y113574830D01*
X5945124Y113590070D01*
X5955538Y113607088D01*
X5963158Y113625629D01*
X5967730Y113645188D01*
X5969000Y113664999D01*
X5967730Y114192812D01*
X5963158Y114212370D01*
X5955538Y114230912D01*
X5945124Y114247930D01*
X5932170Y114263170D01*
X5916930Y114276124D01*
X5899912Y114286537D01*
X5881370Y114294158D01*
X5861812Y114298730D01*
X5842000Y114300000D01*
X4826000Y114299492D01*
X4826000Y114808507D01*
X5861812Y114809270D01*
X5881370Y114813842D01*
X5899912Y114821462D01*
X5916930Y114831876D01*
X5932170Y114844830D01*
X5945124Y114860070D01*
X5955538Y114877087D01*
X5963158Y114895630D01*
X5967730Y114915187D01*
X5969000Y114935000D01*
X5967730Y115462812D01*
X5963158Y115482370D01*
X5955538Y115500912D01*
X5945124Y115517930D01*
X5932170Y115533169D01*
X5916930Y115546124D01*
X5899912Y115556538D01*
X5881370Y115564157D01*
X5861812Y115568730D01*
X5842000Y115570000D01*
X4826000Y115569491D01*
X4826000Y116078508D01*
X5861812Y116079270D01*
X5881370Y116083841D01*
X5899912Y116091462D01*
X5916930Y116101876D01*
X5932170Y116114829D01*
X5945124Y116130070D01*
X5955538Y116147088D01*
X5963158Y116165630D01*
X5967730Y116185188D01*
X5969000Y116205000D01*
X5967730Y116732812D01*
X5963158Y116752369D01*
X5955538Y116770911D01*
X5945124Y116787930D01*
X5932170Y116803170D01*
X5916930Y116816123D01*
X5899912Y116826538D01*
X5881370Y116834158D01*
X5861812Y116838730D01*
X5842000Y116839999D01*
X4826000Y116839492D01*
X4826000Y117348508D01*
X5861812Y117349270D01*
X5881370Y117353842D01*
X5899912Y117361461D01*
X5916930Y117371876D01*
X5932170Y117384830D01*
X5945124Y117400070D01*
X5955538Y117417088D01*
X5963158Y117435630D01*
X5967730Y117455188D01*
X5969000Y117475000D01*
X5967730Y118002812D01*
X5963158Y118022370D01*
X5955538Y118040912D01*
X5945124Y118057930D01*
X5932170Y118073170D01*
X5916930Y118086124D01*
X5899912Y118096538D01*
X5881370Y118104158D01*
X5861812Y118108729D01*
X5842000Y118110000D01*
X4826000Y118109492D01*
X4826000Y118618508D01*
X5861812Y118619270D01*
X5881370Y118623842D01*
X5899912Y118631462D01*
X5916930Y118641876D01*
X5932170Y118654830D01*
X5945124Y118670069D01*
X5955538Y118687088D01*
X5963158Y118705630D01*
X5967730Y118725188D01*
X5969000Y118745000D01*
X5967730Y119272812D01*
X5963158Y119292370D01*
X5955538Y119310912D01*
X5945124Y119327929D01*
X5932170Y119343170D01*
X5916930Y119356124D01*
X5899912Y119366538D01*
X5881370Y119374158D01*
X5861812Y119378730D01*
X5842000Y119380000D01*
X4826000Y119379492D01*
X4826000Y119888508D01*
X5861812Y119889269D01*
X5881370Y119893842D01*
X5899912Y119901462D01*
X5916930Y119911875D01*
X5932170Y119924830D01*
X5945124Y119940070D01*
X5955538Y119957088D01*
X5963158Y119975629D01*
X5967730Y119995188D01*
X5969000Y120014999D01*
X5967730Y120542812D01*
X5963158Y120562370D01*
X5955538Y120580912D01*
X5945124Y120597930D01*
X5932170Y120613170D01*
X5916930Y120626124D01*
X5899912Y120636537D01*
X5881370Y120644158D01*
X5861812Y120648730D01*
X5842000Y120650000D01*
X4826000Y120649492D01*
X4826000Y121158507D01*
X5861812Y121159270D01*
X5881370Y121163842D01*
X5899912Y121171462D01*
X5916930Y121181876D01*
X5932170Y121194830D01*
X5945124Y121210070D01*
X5955538Y121227087D01*
X5963158Y121245630D01*
X5967730Y121265187D01*
X5969000Y121285000D01*
X5967730Y121812812D01*
X5963158Y121832370D01*
X5955538Y121850912D01*
X5945124Y121867930D01*
X5932170Y121883169D01*
X5916930Y121896124D01*
X5899912Y121906538D01*
X5881370Y121914157D01*
X5861812Y121918730D01*
X5842000Y121920000D01*
X4826000Y121919491D01*
X4826000Y122428508D01*
X5861812Y122429270D01*
X5881370Y122433841D01*
X5899912Y122441462D01*
X5916930Y122451876D01*
X5932170Y122464829D01*
X5945124Y122480070D01*
X5955538Y122497088D01*
X5963158Y122515630D01*
X5967730Y122535188D01*
X5969000Y122555000D01*
X5967730Y123082812D01*
X5963158Y123102369D01*
X5955538Y123120911D01*
X5945124Y123137930D01*
X5932170Y123153170D01*
X5916930Y123166123D01*
X5899912Y123176538D01*
X5881370Y123184158D01*
X5861812Y123188730D01*
X5842000Y123189999D01*
X4826000Y123189492D01*
X4826000Y125222000D01*
X13177266Y125222000D01*
X10917174Y122961908D01*
X10905744Y122952255D01*
X10866882Y122906536D01*
X10835386Y122855482D01*
X10812526Y122800110D01*
X10798556Y122741690D01*
X10798556Y122741690D01*
X10793730Y122682000D01*
X10795000Y122667014D01*
X10795000Y120299734D01*
X9647174Y119151908D01*
X9635744Y119142256D01*
X9596882Y119096536D01*
X9565386Y119045481D01*
X9542526Y118990110D01*
X9528556Y118931689D01*
X9528556Y118931689D01*
X9523730Y118872000D01*
X9525000Y118857014D01*
X9525000Y107442000D01*
X9528556Y107382309D01*
X9542526Y107323890D01*
X9565386Y107268517D01*
X9596882Y107217464D01*
X9635744Y107171744D01*
X9681464Y107132882D01*
X9732518Y107101386D01*
X9787890Y107078526D01*
X9846310Y107064556D01*
X9906000Y107059730D01*
X9965690Y107064556D01*
X10024110Y107078526D01*
X10079482Y107101386D01*
X10130536Y107132882D01*
X10176256Y107171744D01*
X10215118Y107217464D01*
X10246614Y107268517D01*
X10269474Y107323890D01*
X10283444Y107382309D01*
X10287000Y107442000D01*
X10287000Y118714266D01*
X11434826Y119862092D01*
X11446256Y119871744D01*
X11485118Y119917464D01*
X11485118Y119917464D01*
X11516614Y119968517D01*
X11539474Y120023890D01*
X11553444Y120082309D01*
X11558270Y120142000D01*
X11557000Y120156986D01*
X11557000Y122524266D01*
X13970000Y124937266D01*
X13970000Y123189492D01*
X13082270Y123188984D01*
X12934188Y123188730D01*
X12914629Y123184158D01*
X12896087Y123176538D01*
X12879070Y123166123D01*
X12863829Y123153170D01*
X12850875Y123137930D01*
X12840462Y123120911D01*
X12832841Y123102369D01*
X12828270Y123082812D01*
X12827000Y123063000D01*
X12828270Y122535188D01*
X12832841Y122515630D01*
X12840462Y122497088D01*
X12850875Y122480070D01*
X12863829Y122464829D01*
X12879070Y122451876D01*
X12896087Y122441462D01*
X12914629Y122433841D01*
X12934188Y122429270D01*
X12954000Y122428000D01*
X13970000Y122428508D01*
X13970000Y121919491D01*
X12934188Y121918730D01*
X12914629Y121914157D01*
X12896087Y121906538D01*
X12879070Y121896124D01*
X12863829Y121883169D01*
X12850875Y121867930D01*
X12840462Y121850912D01*
X12832841Y121832370D01*
X12828270Y121812812D01*
X12827000Y121793000D01*
X12828270Y121265187D01*
X12832841Y121245630D01*
X12840462Y121227087D01*
X12850875Y121210070D01*
X12863829Y121194830D01*
X12879070Y121181876D01*
X12896087Y121171462D01*
X12914629Y121163842D01*
X12934188Y121159270D01*
X12954000Y121157999D01*
X13970000Y121158507D01*
X13970000Y120649492D01*
X12934188Y120648730D01*
X12914629Y120644158D01*
X12896087Y120636537D01*
X12879070Y120626124D01*
X12863829Y120613170D01*
X12850875Y120597930D01*
X12840462Y120580912D01*
X12832841Y120562370D01*
X12828270Y120542812D01*
X12827000Y120523000D01*
X12828270Y119995188D01*
X12832841Y119975629D01*
X12840462Y119957088D01*
X12850875Y119940070D01*
X12863829Y119924830D01*
X12879070Y119911875D01*
X12896087Y119901462D01*
X12914629Y119893842D01*
X12934188Y119889269D01*
X12954000Y119888000D01*
X13970000Y119888508D01*
X13970000Y119379492D01*
X12934188Y119378730D01*
X12914629Y119374158D01*
X12896087Y119366538D01*
X12879070Y119356124D01*
X12863829Y119343170D01*
X12850875Y119327929D01*
X12840462Y119310912D01*
X12832841Y119292370D01*
X12828270Y119272812D01*
X12827000Y119253000D01*
X12828270Y118725188D01*
X12832841Y118705630D01*
X12840462Y118687088D01*
X12850875Y118670069D01*
X12863829Y118654830D01*
X12879070Y118641876D01*
X12896087Y118631462D01*
X12914629Y118623842D01*
X12934188Y118619270D01*
X12954000Y118618000D01*
X13970000Y118618508D01*
X13970000Y118109492D01*
X12934188Y118108729D01*
X12914629Y118104158D01*
X12896087Y118096538D01*
X12879070Y118086124D01*
X12863829Y118073170D01*
X12850875Y118057930D01*
X12840462Y118040912D01*
X12832841Y118022370D01*
X12828270Y118002812D01*
X12827000Y117982999D01*
X12828270Y117455188D01*
X12832841Y117435630D01*
X12840462Y117417088D01*
X12850875Y117400070D01*
X12863829Y117384830D01*
X12879070Y117371876D01*
X12896087Y117361461D01*
X12914629Y117353842D01*
X12934188Y117349270D01*
X12954000Y117348000D01*
X13970000Y117348508D01*
X13970000Y116839492D01*
X12934188Y116838730D01*
X12914629Y116834158D01*
X12896087Y116826538D01*
X12879070Y116816123D01*
X12863829Y116803170D01*
X12850875Y116787930D01*
X12840462Y116770911D01*
X12832841Y116752369D01*
X12828270Y116732812D01*
X12827000Y116713000D01*
X12828270Y116185188D01*
X12832841Y116165630D01*
X12840462Y116147088D01*
X12850875Y116130070D01*
X12863829Y116114829D01*
X12879070Y116101876D01*
X12896087Y116091462D01*
X12914629Y116083841D01*
X12934188Y116079270D01*
X12954000Y116078000D01*
X13970000Y116078508D01*
X13970000Y115570000D01*
X13960094Y115569491D01*
X13587730Y115569238D01*
X12934188Y115568730D01*
X12914629Y115564157D01*
X12896087Y115556538D01*
X12879070Y115546124D01*
X12863829Y115533169D01*
X12850875Y115517930D01*
X12840462Y115500912D01*
X12832841Y115482370D01*
X12828270Y115462812D01*
X12827000Y115443000D01*
X12827000Y115443000D02*
G37*
G54D11*
G36*
X4826000Y105155999D02*
X1016000Y108966000D01*
X1016000Y124968000D01*
X1270000Y125222000D01*
X4826000Y125222000D01*
X4826000Y123189492D01*
X3790188Y123188730D01*
X3770630Y123184158D01*
X3752087Y123176538D01*
X3735069Y123166123D01*
X3719830Y123153170D01*
X3706875Y123137930D01*
X3696462Y123120911D01*
X3688842Y123102369D01*
X3684270Y123082812D01*
X3682999Y123063000D01*
X3684270Y122535188D01*
X3688842Y122515630D01*
X3696462Y122497088D01*
X3706875Y122480070D01*
X3719830Y122464829D01*
X3735069Y122451876D01*
X3752087Y122441462D01*
X3770630Y122433841D01*
X3790188Y122429270D01*
X3810000Y122428000D01*
X4826000Y122428508D01*
X4826000Y121919491D01*
X3790188Y121918730D01*
X3770630Y121914157D01*
X3752087Y121906538D01*
X3735069Y121896124D01*
X3719830Y121883169D01*
X3706875Y121867930D01*
X3696462Y121850912D01*
X3688842Y121832370D01*
X3684270Y121812812D01*
X3682999Y121793000D01*
X3684270Y121265187D01*
X3688842Y121245630D01*
X3696462Y121227087D01*
X3706875Y121210070D01*
X3719830Y121194830D01*
X3735069Y121181876D01*
X3752087Y121171462D01*
X3770630Y121163842D01*
X3790188Y121159270D01*
X3810000Y121157999D01*
X4826000Y121158507D01*
X4826000Y120649492D01*
X3790188Y120648730D01*
X3770630Y120644158D01*
X3752087Y120636537D01*
X3735069Y120626124D01*
X3719830Y120613170D01*
X3706875Y120597930D01*
X3696462Y120580912D01*
X3688842Y120562370D01*
X3684270Y120542812D01*
X3682999Y120523000D01*
X3684270Y119995188D01*
X3688842Y119975629D01*
X3696462Y119957088D01*
X3706875Y119940070D01*
X3719830Y119924830D01*
X3735069Y119911875D01*
X3752087Y119901462D01*
X3770630Y119893842D01*
X3790188Y119889269D01*
X3810000Y119888000D01*
X4826000Y119888508D01*
X4826000Y119379492D01*
X3790188Y119378730D01*
X3770630Y119374158D01*
X3752087Y119366538D01*
X3735069Y119356124D01*
X3719830Y119343170D01*
X3706875Y119327929D01*
X3696462Y119310912D01*
X3688842Y119292370D01*
X3684270Y119272812D01*
X3682999Y119253000D01*
X3684270Y118725188D01*
X3688842Y118705630D01*
X3696462Y118687088D01*
X3706875Y118670069D01*
X3719830Y118654830D01*
X3735069Y118641876D01*
X3752087Y118631462D01*
X3770630Y118623842D01*
X3790188Y118619270D01*
X3810000Y118618000D01*
X4826000Y118618508D01*
X4826000Y118109492D01*
X3790188Y118108729D01*
X3770630Y118104158D01*
X3752087Y118096538D01*
X3735069Y118086124D01*
X3719830Y118073170D01*
X3706875Y118057930D01*
X3696462Y118040912D01*
X3688842Y118022370D01*
X3684270Y118002812D01*
X3682999Y117982999D01*
X3684270Y117455188D01*
X3688842Y117435630D01*
X3696462Y117417088D01*
X3706875Y117400070D01*
X3719830Y117384830D01*
X3735069Y117371876D01*
X3752087Y117361461D01*
X3770630Y117353842D01*
X3790188Y117349270D01*
X3810000Y117348000D01*
X4826000Y117348508D01*
X4826000Y116839492D01*
X3790188Y116838730D01*
X3770630Y116834158D01*
X3752087Y116826538D01*
X3735069Y116816123D01*
X3719830Y116803170D01*
X3706875Y116787930D01*
X3696462Y116770911D01*
X3688842Y116752369D01*
X3684270Y116732812D01*
X3682999Y116713000D01*
X3684270Y116185188D01*
X3688842Y116165630D01*
X3696462Y116147088D01*
X3706875Y116130070D01*
X3719830Y116114829D01*
X3735069Y116101876D01*
X3752087Y116091462D01*
X3770630Y116083841D01*
X3790188Y116079270D01*
X3810000Y116078000D01*
X4826000Y116078508D01*
X4826000Y115569491D01*
X3790188Y115568730D01*
X3770630Y115564157D01*
X3752087Y115556538D01*
X3735069Y115546124D01*
X3719830Y115533169D01*
X3706875Y115517930D01*
X3696462Y115500912D01*
X3688842Y115482370D01*
X3684270Y115462812D01*
X3682999Y115443000D01*
X3684270Y114915187D01*
X3688842Y114895630D01*
X3696462Y114877087D01*
X3706875Y114860070D01*
X3719830Y114844830D01*
X3735069Y114831876D01*
X3752087Y114821462D01*
X3770630Y114813842D01*
X3790188Y114809270D01*
X3810000Y114807999D01*
X4826000Y114808507D01*
X4826000Y114299492D01*
X3790188Y114298730D01*
X3770630Y114294158D01*
X3752087Y114286537D01*
X3735069Y114276124D01*
X3719830Y114263170D01*
X3706875Y114247930D01*
X3696462Y114230912D01*
X3688842Y114212370D01*
X3684270Y114192812D01*
X3682999Y114173000D01*
X3684270Y113645188D01*
X3688842Y113625629D01*
X3696462Y113607088D01*
X3706875Y113590070D01*
X3719830Y113574830D01*
X3735069Y113561875D01*
X3752087Y113551462D01*
X3770630Y113543842D01*
X3790188Y113539269D01*
X3810000Y113538000D01*
X4826000Y113538508D01*
X4826000Y113029492D01*
X3790188Y113028730D01*
X3770630Y113024158D01*
X3752087Y113016538D01*
X3735069Y113006124D01*
X3719830Y112993170D01*
X3706875Y112977929D01*
X3696462Y112960912D01*
X3688842Y112942370D01*
X3684270Y112922812D01*
X3682999Y112903000D01*
X3684270Y112375188D01*
X3688842Y112355630D01*
X3696462Y112337088D01*
X3706875Y112320069D01*
X3719830Y112304830D01*
X3735069Y112291876D01*
X3752087Y112281462D01*
X3770630Y112273842D01*
X3790188Y112269270D01*
X3810000Y112268000D01*
X4826000Y112268508D01*
X4826000Y111759492D01*
X3790188Y111758729D01*
X3770630Y111754158D01*
X3752087Y111746538D01*
X3735069Y111736124D01*
X3719830Y111723170D01*
X3706875Y111707930D01*
X3696462Y111690912D01*
X3688842Y111672370D01*
X3684270Y111652812D01*
X3682999Y111632999D01*
X3684270Y111105188D01*
X3688842Y111085630D01*
X3696462Y111067088D01*
X3706875Y111050070D01*
X3719830Y111034830D01*
X3735069Y111021876D01*
X3752087Y111011461D01*
X3770630Y111003842D01*
X3790188Y110999270D01*
X3810000Y110998000D01*
X4826000Y110998508D01*
X4826000Y105155999D01*
X4826000Y105155999D02*
G37*
G54D12*
X9906000Y118872000D02*
X11176000Y120142000D01*
G54D12*
X11176000Y120142000D02*
X11176000Y122682000D01*
G54D12*
X11176000Y122682000D02*
X13716000Y125222000D01*
G54D12*
X13716000Y125222000D02*
X13716000Y125984000D01*
G54D12*
X9906000Y107442000D02*
X9906000Y118872000D01*
G54D12*
X13970000Y115189000D02*
X21717000Y115189000D01*
G54D13*
X4064000Y122809000D02*
X5588000Y122809000D01*
G54D13*
X13208000Y122809000D02*
X14731999Y122809000D01*
G54D13*
X4064000Y121539000D02*
X5588000Y121539000D01*
G54D13*
X13208000Y121539000D02*
X14731999Y121539000D01*
G54D13*
X4064000Y120269000D02*
X5588000Y120269000D01*
G54D13*
X13208000Y120269000D02*
X14731999Y120269000D01*
G54D13*
X4064000Y118998999D02*
X5588000Y118998999D01*
G54D13*
X4064000Y117729000D02*
X5588000Y117729000D01*
G54D13*
X4064000Y116459000D02*
X5588000Y116459000D01*
G54D13*
X4064000Y115189000D02*
X5588000Y115189000D01*
G54D13*
X13208000Y115189000D02*
X14731999Y115189000D01*
G54D13*
X13208000Y116459000D02*
X14731999Y116459000D01*
G54D13*
X13208000Y117729000D02*
X14731999Y117729000D01*
G54D13*
X13208000Y118998999D02*
X14731999Y118998999D01*
G54D13*
X4064000Y113919000D02*
X5588000Y113919000D01*
G54D13*
X4064000Y112648999D02*
X5588000Y112648999D01*
G54D13*
X4064000Y111379000D02*
X5588000Y111379000D01*
G54D13*
X13208000Y111379000D02*
X14731999Y111379000D01*
G54D13*
X13208000Y112648999D02*
X14731999Y112648999D01*
G54D13*
X13208000Y113919000D02*
X14731999Y113919000D01*
G54D14*
X14224000Y107950000D02*
X14224000Y107950000D01*
M02*
